<?xml version="1.0" standalone="no"?>
<!DOCTYPE svg PUBLIC "-//W3C//DTD SVG 20010904//EN"
 "http://www.w3.org/TR/2001/REC-SVG-20010904/DTD/svg10.dtd">
<svg version="1.0" xmlns="http://www.w3.org/2000/svg"
 width="630.000000pt" height="360.000000pt" viewBox="0 0 630.000000 360.000000"
 preserveAspectRatio="xMidYMid meet">

<g transform="translate(0.000000,360.000000) scale(0.100000,-0.100000)"
fill="#000000" stroke="none">
<path d="M2031 3484 c-42 -53 -19 -188 52 -314 44 -79 149 -178 228 -217 142
-70 268 -81 474 -42 275 52 472 21 610 -95 l39 -33 -54 -28 -54 -27 -70 36
c-146 73 -329 84 -586 33 -198 -39 -203 -40 -256 -22 -71 23 -175 83 -227 132
-24 22 -85 95 -135 160 -153 201 -211 253 -283 253 -71 0 -86 -67 -44 -205 62
-206 94 -273 166 -344 39 -37 140 -96 184 -107 17 -4 42 -13 58 -21 26 -13 67
-24 167 -43 25 -5 56 -11 70 -14 14 -3 46 -8 73 -11 26 -4 45 -10 42 -15 -6
-10 18 -20 48 -20 12 0 29 -5 37 -10 11 -8 -7 -9 -60 -6 l-75 5 90 -15 c50 -8
106 -15 127 -17 20 -1 34 -5 32 -9 -3 -4 1 -5 9 -2 8 3 61 -19 117 -48 80 -42
97 -54 77 -56 -21 -3 -85 15 -162 44 -19 8 -19 7 -3 -10 10 -10 23 -14 30 -10
9 6 9 3 -1 -9 -7 -9 -11 -24 -7 -32 3 -8 1 -15 -4 -15 -6 0 -10 11 -10 25 0
27 -25 45 -69 48 -16 1 -27 5 -25 9 3 4 19 5 37 3 18 -3 1 4 -38 15 -38 11
-81 18 -95 16 l-25 -3 26 -2 c15 0 40 -8 55 -16 l29 -15 -50 -1 c-43 -1 -38
-3 35 -13 95 -12 110 -19 110 -47 0 -23 -27 -25 -50 -4 -13 12 -53 17 -161 22
-221 9 -419 -30 -427 -83 -2 -16 4 -23 25 -28 77 -19 196 -89 262 -154 61 -60
111 -133 111 -161 0 -6 -32 -20 -71 -32 -134 -41 -206 -116 -217 -229 -4 -44
-2 -50 14 -50 38 0 126 29 205 68 l82 39 54 -52 53 -53 58 15 c87 23 88 24 36
67 -44 37 -47 38 -84 27 -51 -15 -81 -14 -108 5 -19 13 -31 14 -74 5 -28 -6
-53 -9 -55 -7 -8 8 27 53 50 63 13 6 56 17 96 24 85 16 105 36 121 116 5 27
25 84 45 125 37 76 53 91 110 102 11 2 29 8 39 12 16 6 18 4 12 -12 -95 -234
-109 -502 -40 -740 61 -210 218 -431 411 -575 34 -26 59 -50 55 -54 -4 -5 -2
-5 4 -2 6 3 46 -12 90 -34 43 -21 116 -51 161 -66 l82 -27 -15 -35 c-8 -20
-31 -52 -49 -71 -43 -44 -44 -52 -2 -45 17 3 50 7 71 10 21 2 62 13 90 23 28
11 79 30 114 42 34 13 65 27 68 31 3 5 13 9 22 9 28 0 -49 -46 -165 -99 -148
-67 -232 -80 -368 -57 -104 17 -136 31 -94 40 90 19 140 27 149 21 5 -3 10 2
10 12 0 10 13 45 29 78 16 33 27 63 25 67 -10 15 -24 8 -39 -22 -13 -25 -21
-29 -58 -30 -47 0 -75 -4 -97 -12 -8 -4 -29 -9 -47 -12 -17 -3 -46 -19 -63
-36 -28 -27 -36 -30 -63 -23 -40 10 -153 10 -190 0 -20 -5 -29 -16 -34 -37 -3
-17 -11 -33 -17 -37 -6 -3 -8 -3 -4 2 7 7 -33 35 -57 39 -21 3 -57 35 -51 45
4 6 -10 3 -31 -5 -31 -14 -46 -14 -89 -5 -54 12 -71 25 -69 51 1 8 -2 25 -7
38 -7 20 -2 25 45 46 54 25 165 56 198 56 10 0 19 5 19 10 0 14 -47 5 -193
-36 -65 -19 -124 -34 -131 -34 -8 0 -25 -9 -39 -20 -53 -42 -283 -49 -482 -15
-16 3 22 -10 85 -30 70 -21 149 -37 200 -41 47 -4 100 -13 118 -21 32 -13 43
-38 20 -46 -10 -3 -10 -7 1 -20 17 -21 50 -21 76 0 16 12 16 14 3 10 -10 -3
-20 -2 -23 2 -2 5 6 12 20 15 14 4 25 12 25 20 0 9 8 12 26 8 19 -3 24 -9 21
-23 -3 -11 1 -20 12 -22 10 -3 8 -5 -7 -6 -13 0 -21 -5 -17 -11 4 -6 15 -5 30
2 13 6 22 15 19 19 -8 13 4 11 43 -7 30 -15 37 -15 60 -3 21 11 27 11 30 1 3
-6 9 -9 15 -6 6 4 6 -1 -1 -13 -6 -11 -7 -24 -3 -28 4 -5 2 -5 -4 -2 -20 11
-74 -65 -74 -104 0 -5 17 -9 39 -9 29 0 51 9 89 37 28 21 49 40 47 43 -2 3 16
5 38 5 41 0 42 -1 45 -35 5 -53 39 -74 77 -46 17 12 17 16 5 31 -11 14 -11 18
0 25 7 4 11 17 7 29 -4 18 -1 21 26 21 18 0 82 -9 142 -19 283 -49 404 -35
610 72 84 43 301 129 284 112 -30 -31 -484 -236 -552 -251 -37 -8 -70 -14 -73
-14 -2 0 -4 -22 -4 -49 0 -77 -23 -84 -105 -32 -37 24 -42 25 -42 6 0 -8 4
-15 8 -15 5 0 6 -7 3 -15 -4 -8 -1 -15 6 -15 6 0 9 4 6 9 -3 5 1 12 10 15 13
5 15 1 12 -18 -3 -16 -1 -23 7 -20 6 3 19 -4 29 -15 10 -11 23 -18 27 -15 16
10 9 -9 -8 -23 -13 -10 -15 -16 -5 -19 6 -3 9 -11 6 -16 -4 -6 -2 -8 4 -4 5 3
13 0 15 -6 3 -8 6 -6 6 5 1 9 8 17 17 17 8 0 13 -4 10 -9 -3 -5 0 -11 7 -14 8
-3 19 4 26 15 11 18 11 20 -3 15 -19 -8 -50 33 -36 47 12 12 21 4 23 -22 0
-11 6 -18 13 -15 7 2 17 -5 23 -16 14 -25 14 -41 1 -21 -8 13 -10 12 -10 -2 0
-21 11 -23 28 -6 8 8 8 17 1 32 -9 18 -7 18 11 -3 18 -21 18 -25 5 -35 -22
-16 -8 -56 19 -55 14 0 16 2 6 6 -16 6 -30 23 -30 36 0 5 4 6 9 3 5 -4 11 0
14 6 2 7 8 10 12 6 4 -4 4 -13 -1 -21 -5 -7 -1 -4 9 6 17 19 17 19 17 -3 0
-26 23 -22 28 5 3 12 0 15 -9 10 -8 -6 -10 -4 -4 5 6 10 3 12 -13 8 -12 -3
-22 -3 -24 1 -7 15 -57 53 -74 55 -31 5 -27 24 8 39 63 29 74 27 92 -9 18 -39
51 -46 61 -13 5 16 10 18 20 9 8 -7 18 -9 23 -7 4 3 14 2 22 -3 9 -5 19 -5 27
2 8 6 16 8 19 5 3 -3 -9 -13 -27 -22 -23 -12 -28 -19 -19 -25 9 -5 5 -8 -11
-8 -45 -1 -90 -14 -86 -26 2 -6 13 -10 23 -8 17 3 18 2 2 -10 -21 -17 -7 -61
17 -52 9 4 14 13 11 20 -3 8 0 14 8 14 21 0 26 -11 14 -34 -10 -18 -9 -19 4
-9 8 7 18 9 23 5 4 -4 4 4 0 18 -5 14 -8 34 -7 45 1 15 -1 17 -8 5 -5 -8 -6
-18 -3 -23 3 -5 -4 -4 -16 2 -25 14 -28 23 -4 14 12 -5 15 -2 11 9 -4 9 0 15
9 15 9 0 18 -9 21 -19 2 -10 9 -15 16 -11 6 4 5 -1 -3 -10 -16 -21 -2 -22 25
-3 18 14 18 15 2 21 -10 4 -15 11 -12 16 6 10 34 -14 34 -28 0 -4 13 -9 30 -9
19 -1 28 2 24 10 -3 6 2 2 12 -9 16 -20 16 -20 11 3 -3 12 -1 20 4 16 5 -3 9
4 9 15 0 12 4 21 9 21 5 0 7 -8 4 -19 -3 -10 1 -22 8 -26 8 -5 10 -4 5 3 -4 6
-2 20 4 31 8 16 6 20 -8 24 -13 4 -11 5 6 6 24 1 29 -18 10 -37 -9 -9 -9 -12
0 -12 6 0 16 8 21 17 6 10 11 14 11 9 0 -5 -7 -18 -17 -28 -9 -10 -11 -18 -5
-18 16 0 42 41 35 54 -4 6 -1 6 8 -1 8 -6 19 -9 24 -5 13 9 15 42 3 42 -5 0
-6 5 -2 11 9 15 24 -9 24 -38 0 -20 3 -19 35 14 19 20 35 31 35 26 0 -6 -7
-16 -15 -23 -9 -7 -13 -20 -10 -30 4 -14 -1 -16 -30 -15 -19 0 -35 -3 -35 -8
0 -5 -6 -4 -14 2 -16 13 -24 0 -36 -60 -5 -25 -3 -36 5 -36 7 0 11 13 9 33 -2
27 1 32 14 27 15 -4 15 -3 2 6 -16 12 -16 12 20 16 14 1 34 6 44 11 14 5 17 4
12 -4 -5 -8 -2 -10 10 -5 13 5 15 2 9 -16 -7 -22 -6 -22 12 -4 13 13 15 19 6
21 -7 2 -11 8 -7 13 3 6 0 16 -6 24 -7 8 -9 15 -5 15 15 0 50 -55 47 -75 -2
-17 0 -16 12 5 14 24 13 26 -15 50 -28 24 -29 28 -18 53 6 14 16 24 22 20 5
-3 13 0 17 6 4 7 7 -1 8 -18 0 -17 -2 -30 -6 -30 -19 3 -32 -2 -32 -12 0 -6 7
-8 17 -5 9 4 20 1 25 -6 5 -9 8 -6 8 10 0 12 4 22 9 22 5 0 8 -11 6 -25 -1
-14 2 -25 6 -25 5 0 9 -5 9 -11 0 -5 -6 -7 -12 -3 -9 6 -9 3 0 -9 8 -9 10 -22
6 -29 -4 -7 2 -5 14 6 18 16 19 20 7 33 -8 8 -15 20 -15 26 1 7 6 5 13 -4 8
-11 18 -14 32 -8 19 7 18 8 -3 8 l-23 1 20 26 c20 25 19 50 -3 67 -7 6 -4 7 6
4 9 -3 19 -1 22 6 4 7 4 0 1 -15 -3 -15 0 -30 6 -34 8 -5 6 -10 -5 -16 -18
-10 -22 -28 -5 -28 5 0 8 4 5 9 -3 5 0 11 8 14 7 3 13 20 14 37 0 18 3 35 6
38 6 5 10 -31 7 -55 -3 -21 15 -15 27 9 l12 23 -3 -25 c-1 -19 -8 -25 -25 -24
-15 0 -21 -4 -18 -13 3 -8 -1 -16 -9 -19 -8 -4 -15 -11 -15 -16 0 -7 5 -6 13
1 8 6 18 7 22 3 5 -4 5 -2 1 5 -4 7 2 17 14 23 15 8 20 8 20 -2 1 -7 7 1 15
17 10 19 13 22 9 8 -3 -13 -1 -23 5 -23 6 0 11 8 12 18 0 13 2 12 9 -5 5 -13
14 -23 20 -23 6 0 9 -4 6 -9 -3 -5 7 -8 23 -7 20 0 27 4 20 12 -11 14 35 56
48 43 5 -5 26 -11 48 -14 29 -3 43 0 55 13 18 19 34 53 31 65 -1 5 4 7 11 4 7
-2 12 -9 11 -15 -3 -14 30 -10 40 5 4 7 13 13 20 13 8 0 8 -3 2 -8 -5 -4 -11
-14 -13 -22 -1 -10 2 -9 13 4 19 25 19 28 -7 56 -18 20 -19 23 -4 17 10 -4 20
-7 22 -7 2 0 4 -7 4 -15 0 -8 5 -15 11 -15 5 0 7 6 3 12 -6 11 -4 11 7 1 18
-18 46 -16 53 3 4 9 13 14 21 10 8 -3 15 -1 15 4 0 6 -6 10 -12 10 -10 0 -9 3
1 9 16 10 23 58 10 66 -4 3 -23 -2 -41 -11 -18 -10 -27 -19 -20 -21 6 -3 12
-9 12 -14 0 -6 -6 -7 -16 -1 -22 12 -56 3 -50 -13 3 -8 -4 -13 -17 -13 -132
-3 -151 -5 -127 -12 14 -4 19 -8 11 -9 -8 -1 -20 -9 -27 -18 -13 -17 -14 -17
-8 0 6 15 2 18 -22 15 -20 -2 -28 1 -26 10 1 8 -2 11 -8 7 -6 -3 -8 -10 -5
-15 3 -4 -13 -10 -35 -12 -22 -2 -40 -1 -40 2 0 3 -19 7 -42 9 -49 2 -71 17
-48 31 21 13 33 12 24 -2 -5 -7 -3 -8 5 -3 7 4 11 16 8 26 -3 11 -1 19 4 19 5
0 9 -7 9 -15 0 -8 9 -15 19 -15 11 0 26 -9 34 -20 12 -18 15 -18 20 -5 4 8 15
15 26 15 11 0 21 5 23 12 2 6 12 12 21 14 13 2 16 -4 13 -22 -4 -21 -3 -22 17
-11 12 7 25 17 29 22 5 6 8 4 8 -5 0 -13 1 -13 10 0 6 10 10 11 10 3 0 -7 9
-13 20 -13 11 0 20 5 20 11 0 5 -5 7 -12 3 -7 -5 -8 -3 -3 6 6 10 10 10 19 -2
10 -14 15 -11 35 20 22 34 24 35 37 17 8 -10 14 -14 14 -8 0 7 -4 15 -10 18
-19 12 -10 26 10 15 16 -9 19 -8 13 6 -5 14 -3 15 17 4 12 -7 20 -8 17 -3 -3
5 3 14 13 21 11 7 21 8 25 2 3 -5 -3 -13 -12 -19 -10 -6 -14 -11 -10 -11 14 0
97 62 92 69 -2 4 1 13 7 21 8 12 8 11 3 -5 -5 -16 0 -14 24 9 17 17 27 32 23
35 -13 9 -10 38 4 38 7 0 10 -7 6 -16 -5 -14 -4 -14 12 -2 9 8 15 20 12 28 -3
8 -2 12 3 9 12 -8 53 63 45 76 -4 7 -2 8 4 4 11 -6 40 40 62 100 9 23 8 25
-12 19 -23 -6 -23 -6 1 15 38 32 64 90 41 90 -5 0 -7 -7 -4 -15 7 -17 -11 -21
-21 -5 -9 15 -41 12 -95 -7 -40 -14 -53 -15 -75 -5 l-28 13 21 22 c51 54 66
146 32 190 -19 24 -78 40 -107 29 -16 -5 -17 -32 -2 -32 5 0 8 4 5 8 -2 4 4 8
14 8 10 0 16 -4 14 -8 -8 -12 11 -9 24 4 7 7 12 8 12 2 0 -5 -9 -15 -20 -22
-12 -7 -20 -8 -20 -2 0 5 -5 10 -11 10 -5 0 -7 -4 -4 -10 4 -6 -1 -7 -11 -3
-13 5 -15 3 -9 -7 5 -8 4 -11 -3 -6 -6 3 -13 2 -17 -4 -3 -5 -11 -10 -17 -10
-7 0 -7 5 1 14 9 11 9 15 -1 20 -7 3 -2 4 12 1 14 -3 19 -2 12 1 -6 3 -10 10
-6 15 3 5 1 9 -4 9 -9 0 -57 -51 -57 -62 0 -3 -3 -10 -7 -14 -13 -12 -9 -34 7
-40 9 -4 32 9 56 31 36 32 46 36 77 31 33 -5 51 -19 52 -39 0 -19 -60 -63
-116 -85 -70 -28 -107 -58 -162 -134 -23 -31 -46 -59 -52 -63 -6 -3 -7 -11 -4
-17 4 -6 3 -8 -3 -5 -5 3 -27 -2 -49 -13 -47 -23 -145 -31 -151 -12 -3 6 0 12
6 12 14 0 14 57 0 62 -6 2 22 26 61 53 102 69 220 183 298 287 48 65 70 87 81
82 44 -19 59 -16 84 18 14 18 28 53 32 78 9 64 36 132 60 153 27 24 71 47 77
41 3 -3 8 2 11 10 4 9 2 18 -3 21 -6 4 -10 2 -10 -4 0 -6 -7 -8 -15 -5 -12 5
-13 10 -4 20 6 8 17 14 23 14 6 0 17 14 23 31 10 26 14 29 32 20 26 -14 71 2
71 26 0 10 5 25 11 33 8 12 10 9 6 -13 l-4 -27 31 24 c18 14 30 32 29 43 -2
16 10 86 24 136 3 12 14 17 38 17 36 0 45 -15 45 -78 0 -28 2 -31 18 -21 14 9
17 26 17 108 0 95 1 98 49 194 58 118 58 132 -7 131 -39 0 -47 3 -47 18 0 23
-5 23 -42 -3 -37 -27 -46 -19 -58 52 -16 93 -30 128 -57 146 -20 13 -28 14
-31 5 -2 -7 -7 -10 -11 -8 -4 3 -5 -12 -2 -32 5 -36 6 -36 9 -7 5 40 16 50 33
29 12 -15 12 -17 -1 -12 -12 4 -16 -5 -18 -44 -3 -40 1 -54 17 -69 12 -11 24
-31 27 -44 7 -29 24 -33 25 -7 0 9 4 5 9 -11 6 -19 4 -42 -5 -67 -7 -21 -10
-42 -7 -46 4 -4 1 -4 -5 0 -7 4 -13 2 -13 -3 0 -6 -18 -11 -40 -11 -51 0 -74
-22 -91 -88 -7 -28 -16 -49 -21 -46 -5 3 -7 -38 -5 -94 5 -94 4 -100 -12 -84
-32 33 -56 65 -42 57 9 -5 12 -4 7 3 -13 21 -51 -5 -82 -57 l-31 -51 -6 112
c-3 62 -14 149 -25 193 -26 105 -34 154 -23 136 7 -11 9 -11 14 0 3 8 5 -2 5
-21 0 -19 7 -51 16 -70 18 -42 20 -34 5 25 -23 92 18 162 78 133 35 -16 63
-70 64 -123 1 -33 3 -28 14 30 7 38 10 76 8 82 -7 18 -23 16 -23 -2 0 -8 -4
-15 -10 -15 -5 0 -6 8 -3 17 5 13 3 15 -12 9 -18 -7 -18 -6 0 14 22 24 26 25
18 3 -4 -11 -3 -14 5 -9 20 12 14 32 -13 44 -28 13 -34 47 -9 56 17 6 10 26
-9 26 -7 0 -6 -4 3 -10 8 -5 11 -10 5 -11 -5 0 -22 -2 -38 -4 -19 -3 -30 2
-37 15 -13 24 -13 33 0 25 11 -7 26 22 16 32 -3 3 -11 1 -18 -4 -7 -6 -23 -9
-35 -8 -18 1 -22 -3 -20 -25 1 -16 7 -26 14 -23 17 6 53 -15 53 -32 0 -7 11
-26 24 -42 l24 -28 -47 2 c-25 0 -52 3 -60 5 -7 1 -16 -3 -19 -11 -3 -9 0 -12
10 -9 9 4 15 0 15 -8 0 -8 -4 -14 -9 -14 -5 0 -6 -5 -2 -12 4 -6 3 -8 -4 -4
-6 3 -13 2 -17 -4 -3 -5 -11 -10 -18 -10 -6 0 -1 7 11 16 16 11 20 19 13 27
-5 7 -6 30 -1 57 4 24 6 64 3 87 -5 45 12 113 27 113 5 0 14 -8 19 -17 14 -24
14 -8 0 20 l-10 22 19 -22 c17 -19 21 -20 26 -7 3 9 4 19 2 23 -3 4 4 8 15 8
15 1 19 -5 19 -27 0 -16 5 -32 11 -36 8 -4 3 -12 -12 -21 -23 -13 -23 -14 -1
-8 16 5 22 2 22 -11 0 -14 2 -15 17 -3 14 12 14 14 0 17 -13 3 -14 6 -1 30 8
15 14 37 14 50 0 12 5 22 10 22 18 0 10 29 -12 44 -12 9 -17 16 -10 16 6 0 11
10 10 23 0 12 6 48 15 80 16 59 8 117 -15 117 -5 0 -6 5 -3 10 4 6 18 10 33
10 30 -1 219 27 241 35 34 13 -2 13 -94 0 -55 -8 -103 -15 -106 -15 -4 0 -4
32 -1 70 4 55 2 70 -9 70 -11 0 -11 2 -1 8 9 6 10 16 3 34 -5 14 -7 28 -5 31
7 7 -44 87 -70 109 -45 37 -113 4 -102 -50 12 -64 19 -144 20 -244 1 -69 6
-112 14 -120 7 -7 12 -19 12 -28 -1 -12 -4 -11 -15 4 -14 18 -15 15 -16 -40
l0 -59 -13 42 c-29 92 -120 203 -167 203 -15 0 -31 -5 -34 -10 -4 -6 -11 -7
-17 -4 -6 4 -8 3 -5 -2 3 -6 1 -30 -4 -54 -6 -27 -6 -53 0 -70 8 -25 7 -26
-15 -22 -17 3 -25 13 -30 38 -4 21 -12 34 -21 34 -11 0 -14 -7 -11 -25 3 -14
2 -27 -1 -30 -4 -2 -8 8 -9 23 -1 14 -7 29 -13 33 -8 5 -7 8 2 11 7 2 13 14
14 26 2 21 1 21 -16 6 -10 -9 -16 -21 -12 -27 4 -6 0 -8 -9 -4 -10 3 -20 -3
-28 -19 -15 -28 -32 -32 -24 -6 5 14 4 15 -5 2 -9 -12 -14 -13 -31 -2 -12 7
-20 8 -20 2 0 -5 -5 -10 -11 -10 -5 0 -7 4 -4 10 3 5 1 18 -4 27 -10 17 -10
17 -11 -1 0 -21 -10 -17 -13 6 -3 20 -33 59 -40 52 -3 -3 -3 -12 0 -20 3 -8 1
-14 -5 -14 -5 0 -9 11 -8 24 0 14 -2 25 -7 25 -11 1 -35 25 -31 32 7 12 -24
42 -46 46 -19 3 -21 1 -10 -12 9 -11 9 -15 1 -15 -7 0 -10 -4 -7 -8 2 -4 -4
-8 -14 -8 -10 0 -16 4 -14 8 3 4 0 8 -6 8 -6 0 -37 25 -69 55 -32 30 -61 52
-65 47 -4 -4 -6 0 -4 8 2 9 -3 14 -12 12 -8 -2 -12 0 -8 4 11 10 -12 35 -25
27 -5 -3 -7 -1 -4 4 8 13 -18 36 -44 38 -23 2 -46 22 -36 32 4 3 14 -2 21 -13
8 -10 17 -16 20 -13 4 3 -18 27 -48 53 -58 49 -67 49 -95 -2 -8 -14 -11 -14
-27 -2 -16 14 -16 13 -6 -7 14 -26 15 -33 3 -33 -5 0 -11 9 -14 20 -5 20 -27
28 -27 10 0 -5 -6 -10 -14 -10 -8 0 -18 -5 -22 -12 -4 -6 -3 -8 3 -5 6 4 13 0
17 -8 3 -8 11 -15 18 -14 10 0 10 2 1 6 -7 2 -13 9 -13 14 0 6 5 7 10 4 6 -3
10 0 10 7 0 8 5 6 11 -5 6 -10 8 -21 5 -24 -3 -3 6 -15 20 -25 30 -24 38 -20
25 13 -6 17 -5 28 5 37 8 7 12 17 9 23 -4 5 1 9 10 9 9 0 14 4 11 8 -3 5 5 8
17 7 19 -1 22 -8 22 -40 0 -21 6 -40 12 -42 8 -3 10 -15 6 -34 -3 -17 -2 -29
3 -27 15 3 54 -13 54 -22 0 -5 7 -7 15 -4 14 6 19 -5 16 -33 -1 -6 3 -14 9
-18 5 -3 7 0 5 7 -4 10 3 14 23 13 18 0 28 -4 25 -11 -6 -16 -54 -24 -75 -13
-23 13 -56 11 -101 -5 l-39 -13 33 -7 c31 -6 32 -7 13 -21 -18 -15 -18 -16 11
-14 29 2 50 -3 90 -22 17 -8 17 -9 1 -4 -10 3 -64 10 -120 16 -151 16 -322 2
-440 -37 -47 -16 -49 -16 -59 2 -17 31 -109 113 -167 149 -124 75 -296 97
-505 65 -137 -22 -337 -19 -405 4 -65 23 -94 39 -138 80 -49 45 -66 78 -107
206 -26 79 -46 123 -66 142 -36 37 -80 38 -108 2z m2102 -448 c-3 -16 -10 -23
-19 -19 -10 4 -11 10 -3 24 14 27 27 24 22 -5z m34 -13 c0 -9 -4 -10 -14 -2
-7 6 -13 12 -13 14 0 1 6 2 13 2 8 0 14 -6 14 -14z m-2206 -30 c13 -16 12 -17
-3 -4 -10 7 -18 15 -18 17 0 8 8 3 21 -13z m2229 -3 c0 -5 -5 -10 -11 -10 -5
0 -7 5 -4 10 3 6 8 10 11 10 2 0 4 -4 4 -10z m90 -71 c0 -6 -6 -7 -12 -3 -7 4
7 -14 32 -40 54 -56 40 -61 -19 -6 -23 22 -49 40 -57 40 -8 0 -12 5 -9 10 4 6
15 8 26 5 11 -4 19 -2 19 5 0 6 5 8 10 5 6 -3 10 -11 10 -16z m-166 -9 c14 0
17 -3 10 -10 -14 -14 -41 -3 -49 18 -5 14 -4 15 6 5 7 -7 22 -13 33 -13z m63
-9 c-1 -15 -4 -17 -19 -7 -19 11 -19 11 19 25 1 1 1 -7 0 -18z m243 -1 c0 -5
-2 -10 -4 -10 -3 0 -8 5 -11 10 -3 6 -1 10 4 10 6 0 11 -4 11 -10z m-180 -60
c20 -6 21 -8 5 -8 -11 0 -31 4 -45 8 -20 6 -21 8 -5 8 11 0 31 -4 45 -8z
m-486 -58 c-50 -57 -100 -88 -162 -102 -66 -15 -63 -23 4 -11 53 11 49 12 164
-69 36 -25 38 -26 10 -3 -79 64 -99 90 -24 31 45 -34 80 -65 78 -67 -1 -2 10
-14 27 -28 54 -46 54 -49 -16 -189 -39 -76 -71 -155 -78 -191 -7 -35 -17 -67
-22 -72 -25 -23 -359 -130 -408 -131 -19 0 -54 21 -115 69 -97 76 -142 125
-142 154 0 57 108 305 152 349 l21 21 -47 -5 -47 -6 23 25 c35 38 177 129 260
168 82 37 224 81 303 94 28 4 51 6 53 5 1 -1 -14 -20 -34 -42z m940 -31 c3 -5
-3 -11 -13 -14 -14 -3 -18 -1 -14 9 6 16 19 18 27 5z m-1607 -45 c159 -19 161
-23 58 -107 -47 -39 -90 -79 -96 -90 l-11 -21 -22 21 c-12 12 -26 18 -30 14
-4 -4 -4 0 -1 9 4 11 -4 24 -27 41 -36 28 -167 87 -192 87 -9 0 -16 9 -16 19
0 20 6 21 140 34 67 7 86 6 197 -7z m1356 -22 c123 -62 308 -265 398 -439 30
-59 37 -82 32 -108 -3 -17 -9 -36 -14 -41 -4 -5 -53 3 -114 19 -88 24 -110 33
-122 54 -58 97 -120 178 -196 257 l-87 92 12 101 c6 55 13 101 15 101 2 0 36
-16 76 -36z m651 11 c3 -8 1 -15 -4 -15 -6 0 -10 7 -10 15 0 8 2 15 4 15 2 0
6 -7 10 -15z m-504 -41 c0 -2 -9 0 -20 6 -11 6 -20 13 -20 16 0 2 9 0 20 -6
11 -6 20 -13 20 -16z m216 1 c-3 -8 -2 -15 3 -15 4 0 13 -11 19 -24 9 -20 8
-25 -5 -30 -21 -8 -31 3 -14 14 12 7 11 11 -2 25 -19 19 -23 45 -6 45 6 0 9
-7 5 -15z m-36 -5 c0 -5 -4 -10 -10 -10 -5 0 -10 5 -10 10 0 6 5 10 10 10 6 0
10 -4 10 -10z m-41 -14 c9 -10 8 -15 -3 -19 -10 -4 -14 0 -13 14 2 23 1 23 16
5z m381 -1 c0 -8 -2 -15 -4 -15 -2 0 -6 7 -10 15 -3 8 -1 15 4 15 6 0 10 -7
10 -15z m-500 -5 c0 -5 -2 -10 -4 -10 -3 0 -8 5 -11 10 -3 6 -1 10 4 10 6 0
11 -4 11 -10z m231 -73 c-10 -9 -11 -8 -5 6 3 10 9 15 12 12 3 -3 0 -11 -7
-18z m-107 -13 c3 -8 10 -13 15 -10 5 3 34 -14 64 -39 30 -24 58 -41 61 -37 4
3 4 -1 0 -11 -3 -10 -1 -17 5 -17 6 0 11 -5 11 -10 0 -6 9 -29 19 -50 11 -22
16 -40 11 -40 -4 0 -10 -13 -12 -28 -4 -30 24 -107 35 -95 4 3 7 1 7 -5 0 -33
-20 -12 -54 57 -21 43 -61 109 -90 146 -28 37 -59 83 -69 101 -9 19 -20 34
-23 34 -3 0 -2 -6 2 -12 5 -9 2 -8 -10 1 -13 11 -14 16 -4 22 19 12 25 11 32
-7z m114 3 c7 3 12 -4 12 -19 0 -16 -3 -19 -9 -10 -4 8 -18 12 -29 10 -12 -1
-21 0 -22 5 -1 25 1 27 18 19 9 -5 23 -7 30 -5z m-2198 -37 c11 -8 7 -9 -15
-4 -37 8 -45 14 -19 14 10 0 26 -5 34 -10z m1765 -102 c50 -51 118 -134 152
-185 l61 -91 -15 -79 c-17 -94 -57 -216 -85 -261 -28 -46 -60 -59 -195 -82
-129 -22 -234 -26 -263 -10 -10 6 -65 72 -122 148 -58 75 -121 159 -141 185
-20 27 -37 55 -37 63 0 61 110 307 160 358 28 29 119 44 265 45 l130 1 90 -92z
m450 82 c3 -5 2 -10 -4 -10 -5 0 -13 5 -16 10 -3 6 -2 10 4 10 5 0 13 -4 16
-10z m-2081 -96 c23 -9 20 -24 -4 -24 -11 0 -20 7 -20 15 0 17 2 18 24 9z
m159 -9 c-3 -9 -8 -14 -10 -11 -3 3 -2 9 2 15 9 16 15 13 8 -4z m-130 -81 c83
-7 89 -14 56 -54 -11 -14 -18 -20 -15 -13 14 26 -36 36 -150 31 -124 -6 -198
-31 -220 -76 -16 -34 -21 -36 -33 -14 -9 17 -6 26 14 51 52 61 180 89 348 75z
m2533 -91 c-10 -10 -19 5 -10 18 6 11 8 11 12 0 2 -7 1 -15 -2 -18z m-193 -58
c-5 -25 -7 -27 -13 -10 -4 11 -3 26 3 33 14 17 16 12 10 -23z m292 15 c-3 -5
-13 -10 -21 -10 -8 0 -12 5 -9 10 3 6 13 10 21 10 8 0 12 -4 9 -10z m-2274
-160 c61 -49 115 -90 120 -90 5 0 9 -79 10 -187 1 -104 4 -174 8 -158 4 17 6
-13 6 -67 l0 -97 -45 -47 c-25 -25 -66 -64 -93 -85 -47 -37 -48 -38 -82 -23
-108 45 -218 142 -236 206 -34 129 -50 365 -30 450 7 31 186 188 214 188 10 0
67 -40 128 -90z m1748 33 c5 -21 12 -56 15 -78 5 -33 2 -29 -18 25 -20 56 -24
90 -10 90 2 0 8 -17 13 -37z m471 -4 c0 -5 -4 -9 -10 -9 -5 0 -10 7 -10 16 0
8 5 12 10 9 6 -3 10 -10 10 -16z m-1622 -2 c6 -6 12 -19 14 -27 2 -8 10 -20
18 -27 10 -8 11 -12 3 -13 -6 0 -15 5 -18 10 -5 8 -11 7 -21 -1 -10 -8 -14 -8
-14 0 0 6 5 11 10 11 6 0 10 8 10 18 0 12 -5 9 -19 -12 -25 -38 -48 -51 -66
-36 -8 7 -15 7 -19 1 -3 -5 0 -12 6 -14 8 -4 7 -6 -4 -6 -11 -1 -15 -8 -11
-23 4 -22 3 -22 -11 2 -14 23 -14 26 4 39 26 17 26 31 0 24 -11 -3 -20 -9 -20
-14 0 -5 -4 -9 -9 -9 -21 0 -5 43 19 52 14 6 34 14 45 19 55 22 69 23 83 6z
m1598 -24 c-4 -4 -11 -1 -16 7 -16 25 -11 35 7 17 9 -9 13 -20 9 -24z m-1766
-43 c-6 -11 -8 -21 -5 -21 3 -1 10 -2 15 -3 15 -2 30 -28 30 -54 0 -20 -2 -21
-21 -10 -17 11 -22 10 -35 -6 -10 -15 -17 -17 -25 -9 -8 8 -3 16 20 27 36 19
37 23 14 48 -20 23 -58 25 -49 2 3 -8 2 -12 -3 -9 -5 3 -12 1 -16 -5 -10 -16
-25 -12 -19 5 4 8 1 15 -5 15 -6 0 -11 -4 -11 -9 0 -4 -11 -7 -25 -6 -14 2
-25 -1 -25 -7 0 -5 6 -8 12 -6 13 5 40 -16 38 -28 -1 -4 4 -10 12 -15 9 -6 6
-8 -9 -6 -17 1 -19 4 -11 14 8 10 6 13 -6 14 -9 1 -26 2 -38 3 -26 2 -50 -12
-43 -24 3 -5 17 -7 31 -5 18 2 22 -1 15 -8 -13 -13 -51 -20 -50 -9 4 21 -3 22
-22 1 l-21 -24 16 27 c14 25 14 27 -7 42 -13 9 -16 15 -7 13 8 -1 18 -6 22
-11 4 -6 13 -5 22 3 8 7 19 10 24 7 5 -3 9 1 9 9 0 13 -4 13 -24 0 -12 -9 -23
-11 -23 -6 0 9 25 23 45 26 42 6 86 19 90 26 3 4 14 6 25 4 11 -2 20 0 20 6 0
5 11 9 25 9 23 0 24 -2 15 -20z m180 -20 c0 -5 -2 -10 -4 -10 -3 0 -8 5 -11
10 -3 6 -1 10 4 10 6 0 11 -4 11 -10z m15 -38 c-3 -3 -11 0 -18 7 -9 10 -8 11
6 5 10 -3 15 -9 12 -12z m-234 -16 c-14 -15 -19 -26 -12 -31 8 -4 8 -12 1 -26
-6 -11 -8 -23 -5 -28 3 -5 -4 -7 -16 -4 -16 4 -17 8 -7 14 13 8 11 10 -14 13
-16 1 -23 26 -7 26 6 0 18 -8 25 -17 13 -17 13 -17 14 0 0 9 -4 17 -10 17 -18
0 -10 29 10 35 11 3 20 11 20 16 0 5 5 9 12 9 6 0 1 -11 -11 -24z m189 4 c0
-5 -8 -10 -17 -10 -15 0 -16 2 -3 10 19 12 20 12 20 0z m27 -25 c-30 -27 -47
-32 -47 -14 0 5 4 8 8 5 4 -2 19 4 32 15 36 27 40 23 7 -6z m-157 -15 c0 -4
-6 -10 -14 -13 -10 -4 -14 0 -13 12 1 18 27 18 27 1z m100 16 c0 -3 -4 -8 -10
-11 -5 -3 -10 -1 -10 4 0 6 5 11 10 11 6 0 10 -2 10 -4z m-394 -63 c-3 -4 -1
-12 5 -20 9 -9 8 -13 0 -13 -8 0 -11 -26 -9 -80 1 -44 -1 -83 -5 -86 -4 -4 -7
49 -7 117 1 92 3 119 11 106 6 -10 8 -21 5 -24z m246 5 c-7 -7 -10 -5 -7 8 5
29 6 30 12 16 3 -8 1 -18 -5 -24z m-198 11 c-4 -8 0 -9 15 -4 16 5 20 3 15 -9
-5 -12 -10 -13 -30 -4 -18 8 -21 14 -12 20 18 11 20 10 12 -3z m116 -6 c0 -13
-1 -14 -36 -18 -12 -1 -28 -6 -35 -10 -8 -5 -5 1 5 13 16 18 22 20 34 9 13
-10 15 -9 10 4 -4 10 -1 16 8 16 8 0 14 -6 14 -14z m149 -22 c8 -15 5 -20 -17
-30 -26 -12 -26 -12 -9 6 22 25 10 38 -15 16 -10 -9 -18 -13 -18 -8 0 9 31 34
42 35 4 0 12 -8 17 -19z m-165 -22 c-4 -8 1 -9 17 -4 23 7 23 7 4 -8 -14 -11
-22 -12 -27 -4 -7 11 -2 27 8 27 3 0 2 -5 -2 -11z m-25 -2 c-2 -1 -15 -11 -28
-22 l-24 -20 14 23 c8 12 20 22 28 22 8 0 12 -1 10 -3z m333 -19 c-17 -17 -15
-33 3 -18 21 18 19 6 -3 -13 -17 -15 -18 -15 -19 6 -1 12 3 25 10 29 18 12 23
10 9 -4z m-331 -25 c-8 -15 -10 -15 -11 -2 0 17 10 32 18 25 2 -3 -1 -13 -7
-23z m119 7 c12 -8 10 -9 -7 -7 -12 2 -26 6 -29 10 -11 11 19 8 36 -3z m160
-34 c0 -6 -7 -1 -15 10 -8 10 -15 23 -15 28 0 6 7 1 15 -10 8 -10 15 -23 15
-28z m-113 8 c-3 -3 -12 -4 -19 -1 -8 3 -5 6 6 6 11 1 17 -2 13 -5z m904 -34
c26 -14 84 -132 109 -222 11 -40 20 -78 20 -84 0 -39 -199 -307 -259 -348 -44
-31 -172 -67 -231 -65 -25 1 -18 4 25 10 130 19 196 48 257 114 49 51 188 267
188 289 0 24 -39 146 -47 146 -2 0 -1 -10 2 -21 5 -15 4 -19 -4 -15 -6 4 -11
14 -11 21 0 9 -6 12 -17 8 -10 -4 -14 -2 -10 4 3 5 0 10 -8 10 -12 0 -12 -3
-2 -16 10 -12 9 -14 -6 -8 -10 4 -16 3 -12 -2 3 -5 2 -11 -2 -14 -10 -5 12 1
32 9 8 3 15 1 15 -4 0 -12 -38 -27 -95 -37 -11 -2 -22 -4 -24 -4 -2 -1 2 -8 9
-16 18 -22 6 -29 -30 -17 -28 10 -30 10 -20 -8 6 -11 7 -20 3 -20 -4 0 -1 -5
7 -10 11 -7 12 -10 2 -10 -21 0 -45 27 -29 33 6 3 2 4 -10 4 -23 -1 -21 -9 10
-44 11 -13 16 -23 10 -23 -6 0 -13 5 -15 12 -2 6 -15 12 -28 13 -22 2 -22 1
-4 -12 18 -14 18 -14 -6 -11 -17 2 -24 8 -22 20 1 9 -3 20 -9 24 -7 4 -9 3 -5
-4 3 -6 1 -22 -5 -36 -12 -27 -29 -35 -29 -15 0 8 -4 9 -13 0 -8 -6 -17 -8
-20 -4 -4 3 1 12 11 20 15 13 15 13 -5 3 -22 -10 -22 -12 -7 -35 18 -28 29
-33 21 -11 -4 10 -1 13 9 9 18 -7 18 -8 -3 -29 -10 -10 -18 -22 -18 -27 0 -6
-5 -12 -12 -14 -15 -5 -37 33 -23 42 5 3 10 -3 10 -14 0 -12 5 -21 12 -21 6 0
8 3 5 7 -4 3 -2 12 4 20 9 10 8 13 -5 13 -10 0 -14 5 -11 11 4 6 -2 5 -14 -3
-12 -7 -21 -20 -21 -28 -1 -12 -3 -12 -14 2 -7 10 -16 15 -19 11 -10 -10 -8
-25 2 -19 5 3 12 -1 15 -10 3 -8 2 -12 -4 -9 -6 3 -10 1 -10 -4 0 -6 -5 -11
-11 -11 -5 0 -7 5 -3 12 4 7 3 8 -4 4 -6 -4 -9 -13 -5 -21 3 -10 1 -13 -9 -10
-8 3 -23 -3 -33 -15 -10 -11 -24 -20 -32 -20 -8 0 -11 -4 -8 -10 8 -13 2 -13
-29 2 -22 9 -29 8 -46 -7 -20 -18 -21 -18 -14 1 5 17 4 16 -13 -3 -13 -16 -22
-20 -33 -13 -15 9 -30 5 -30 -10 0 -5 6 -7 14 -4 8 3 17 1 21 -5 3 -7 0 -8 -9
-5 -22 8 -20 0 9 -46 14 -22 23 -40 20 -40 -10 0 -135 203 -135 220 0 6 15 30
34 54 19 25 64 96 101 158 111 187 102 178 198 178 81 0 295 25 305 35 9 9 52
6 73 -5z m374 -211 c11 -17 -1 -21 -15 -4 -8 9 -8 15 -2 15 6 0 14 -5 17 -11z
m-331 -8 c-3 -3 -11 -6 -17 -6 -7 -1 -11 -7 -9 -14 1 -7 -2 -9 -8 -6 -7 4 -23
-4 -37 -16 -15 -13 -23 -18 -19 -11 5 8 1 18 -9 26 -15 11 -14 12 4 12 12 0
21 -4 21 -9 0 -4 5 -5 10 -2 6 4 7 11 4 17 -4 6 -3 8 2 5 6 -3 16 -2 22 2 15
9 45 10 36 2z m310 -30 c14 -16 15 -20 2 -30 -10 -8 -16 -9 -21 -2 -7 12 -54
-14 -68 -36 -5 -8 -12 -11 -16 -9 -13 9 -86 -22 -86 -36 0 -7 -7 -19 -15 -26
-13 -12 -13 -13 0 -7 13 6 13 5 0 -7 -9 -7 -24 -33 -35 -57 -10 -24 -21 -39
-23 -33 -2 6 6 30 18 54 21 42 21 42 1 18 -11 -14 -21 -30 -21 -36 0 -5 -9
-20 -20 -32 -11 -12 -38 -47 -60 -78 -71 -101 -43 -47 41 79 44 67 85 121 90
120 4 -2 6 4 3 11 -6 16 40 49 120 87 25 12 49 25 52 30 8 14 19 11 38 -10z
m-444 -32 c0 -5 4 -8 8 -5 4 2 8 -4 8 -15 0 -24 0 -24 -20 6 -9 14 -12 25 -6
25 5 0 10 -5 10 -11z m-880 -88 c96 -33 185 -61 198 -61 18 0 28 -11 47 -54
27 -60 70 -134 125 -216 36 -52 37 -56 21 -75 -9 -11 -53 -46 -99 -78 -82 -56
-85 -57 -150 -55 -37 0 -51 3 -32 5 67 7 125 27 175 62 68 47 95 72 95 87 0 7
-10 24 -22 37 -13 13 -45 61 -72 106 -27 46 -51 79 -55 74 -9 -15 -44 -25 -35
-11 5 7 2 9 -9 5 -11 -4 -14 -2 -11 8 7 17 -13 22 -106 28 -36 2 -54 2 -41 0
19 -4 21 -7 10 -14 -11 -7 -10 -9 4 -9 10 0 15 -4 12 -10 -3 -5 -2 -10 4 -10
6 0 8 -7 5 -15 -4 -8 -10 -15 -15 -15 -4 0 -6 7 -3 15 4 8 1 15 -5 15 -6 0
-12 -12 -12 -27 -1 -19 -3 -22 -6 -10 -3 11 -11 16 -19 13 -7 -3 -16 -1 -20 5
-4 7 -10 6 -18 0 -7 -6 -17 -7 -21 -3 -5 4 -5 1 -1 -5 6 -11 -4 -17 -25 -15
-3 1 -5 -9 -4 -22 2 -13 -3 -23 -10 -23 -7 0 -10 8 -7 19 2 10 -1 18 -7 18 -6
0 -8 -7 -4 -17 4 -11 3 -14 -6 -9 -6 4 -11 4 -10 -1 3 -19 -2 -34 -10 -29 -5
3 -15 -2 -22 -12 -13 -15 -12 -16 4 -3 9 7 17 11 17 8 0 -3 3 -13 6 -22 5 -13
2 -15 -19 -10 -18 5 -28 2 -36 -12 -6 -10 -11 -14 -11 -9 0 5 -8 2 -17 -5 -15
-12 -16 -12 -8 1 7 13 6 13 -7 2 -12 -10 -17 -10 -27 1 -6 8 -8 16 -6 19 3 3
-4 8 -15 11 -20 5 -20 4 4 -26 13 -18 30 -31 36 -29 6 1 8 -2 5 -8 -4 -6 -1
-19 7 -29 7 -9 -10 8 -39 38 -61 66 -105 143 -126 222 l-14 57 46 36 c25 20
71 56 101 81 30 25 62 43 70 41 8 -2 94 -31 190 -65z m753 -2 c-8 -16 -17 -28
-19 -26 -7 6 18 57 27 57 4 0 1 -14 -8 -31z m-608 -160 c-3 -3 -17 -4 -31 -1
-21 4 -25 2 -19 -9 8 -12 6 -12 -8 0 -24 20 -22 22 22 19 22 -1 38 -5 36 -9z
m-140 -51 c4 4 1 -3 -6 -16 -8 -12 -15 -18 -17 -12 -2 5 -11 10 -19 10 -14 0
-13 -3 3 -22 10 -13 12 -17 4 -10 -21 18 -34 15 -19 -5 11 -15 11 -16 -1 -6
-21 19 -20 42 1 48 10 4 19 11 19 17 0 7 4 7 13 -1 8 -6 17 -7 22 -3z m1380
-8 c3 -5 1 -10 -4 -10 -6 0 -11 5 -11 10 0 6 2 10 4 10 3 0 8 -4 11 -10z
m-117 -32 c9 3 8 -3 -4 -16 -16 -20 -44 -20 -44 0 0 5 5 6 12 2 8 -5 9 0 5 17
-5 20 -4 22 6 8 7 -9 18 -14 25 -11z m-1338 -33 c5 3 12 0 16 -7 4 -7 4 -10
-1 -6 -4 4 -13 0 -20 -9 -7 -9 -20 -17 -28 -19 -14 -2 -15 1 -6 18 9 18 9 20
-4 15 -11 -4 -14 -2 -10 8 4 11 10 12 24 4 11 -5 24 -7 29 -4z m968 -22 c-1
-21 19 -73 27 -73 4 0 16 5 28 11 21 10 22 10 2 -6 -11 -8 -26 -14 -34 -13
-15 3 -44 75 -35 89 8 14 13 11 12 -8z m-1038 -57 c8 -11 10 -17 3 -13 -6 4
-13 1 -16 -5 -2 -7 -4 0 -4 15 0 15 0 27 1 25 1 -2 8 -12 16 -22z m69 -2 c-14
-13 -16 -13 -16 0 0 8 4 13 9 10 4 -3 8 0 8 7 0 7 3 9 7 5 4 -3 0 -13 -8 -22z
m636 11 c6 -2 -15 -4 -45 -4 -30 0 -61 3 -68 8 -12 7 90 4 113 -4z m-575 -146
c47 -15 75 -28 64 -29 -43 0 -254 78 -254 95 0 3 24 -4 53 -16 28 -11 90 -34
137 -50z m1480 -33 c0 -3 -4 -8 -10 -11 -5 -3 -10 -1 -10 4 0 6 5 11 10 11 6
0 10 -2 10 -4z m-102 -43 c4 -10 7 -29 5 -43 -3 -14 -4 -36 -5 -49 0 -16 -3
-20 -8 -11 -6 9 -11 6 -20 -11 -7 -13 -28 -42 -46 -63 -31 -36 -38 -66 -12
-50 7 4 8 2 4 -5 -5 -8 -12 -9 -20 -2 -15 13 -60 -15 -50 -31 4 -7 2 -8 -4 -4
-6 4 -23 -1 -37 -10 -40 -26 -165 -60 -230 -63 -33 -1 -61 -7 -63 -12 -6 -15
-32 -10 -32 6 0 9 -10 16 -25 16 -30 2 -32 2 -68 17 -34 14 -40 15 -32 3 3 -6
-2 -14 -10 -19 -14 -7 -14 -11 3 -32 14 -18 21 -20 27 -10 5 9 4 11 -3 6 -8
-5 -11 1 -10 18 1 15 8 26 16 26 7 0 11 -4 8 -9 -3 -4 1 -17 9 -27 13 -17 14
-18 15 -1 0 9 -5 17 -12 17 -6 0 -9 3 -6 6 4 3 16 0 28 -6 l23 -12 -28 -22
c-19 -16 -26 -27 -20 -37 4 -8 -2 -4 -13 8 -12 12 -32 25 -44 28 -13 4 -30 13
-38 20 -8 6 -31 18 -50 25 -19 7 -44 21 -55 30 -11 9 -32 22 -47 29 -26 13
-29 31 -7 31 6 0 7 -5 3 -12 -4 -7 -3 -8 5 -4 6 4 9 12 6 17 -11 17 23 20 54
5 37 -19 42 -20 35 -3 -9 24 15 67 43 79 16 7 52 28 81 47 45 29 61 34 105 33
66 -3 159 13 199 33 38 18 38 18 38 1 0 -8 5 -16 12 -18 22 -8 -1 -39 -42 -57
-22 -10 -38 -20 -36 -22 3 -3 -23 -24 -57 -48 l-62 -43 56 4 c77 6 130 35 251
137 139 117 151 124 166 94z m-620 -25 c18 -18 49 -19 56 -3 3 8 10 15 16 15
8 0 8 -6 0 -20 -8 -15 -21 -20 -55 -20 -24 0 -47 4 -50 10 -3 6 1 7 9 4 9 -3
16 -2 16 4 0 6 -6 13 -12 15 -7 3 -8 6 -2 6 5 1 15 -4 22 -11z m686 -13 c-4
-8 -1 -15 6 -15 6 0 8 -5 4 -11 -5 -8 -10 -6 -16 5 -5 9 -6 21 -3 26 9 15 15
12 9 -5z m-123 -228 c-13 -13 -26 -3 -16 12 3 6 11 8 17 5 6 -4 6 -10 -1 -17z
m-31 -71 c0 -3 -4 -8 -10 -11 -5 -3 -10 -1 -10 4 0 6 5 11 10 11 6 0 10 -2 10
-4z m-330 -26 c0 -6 -10 -10 -22 -8 -16 2 -22 -1 -20 -12 2 -8 0 -11 -4 -7
-18 18 -10 33 17 35 16 1 29 -3 29 -8z m80 0 c0 -5 -2 -10 -4 -10 -3 0 -8 5
-11 10 -3 6 -1 10 4 10 6 0 11 -4 11 -10z m177 -32 c-3 -8 -6 -5 -6 6 -1 11 2
17 5 13 3 -3 4 -12 1 -19z m63 3 c0 -10 -22 -31 -32 -31 -16 0 -7 20 10 21 13
0 12 2 -5 9 -30 12 -29 18 2 12 14 -2 25 -7 25 -11z m-165 -31 c3 -5 1 -10 -4
-10 -6 0 -11 5 -11 10 0 6 2 10 4 10 3 0 8 -4 11 -10z m-400 -9 c3 -5 2 -12
-3 -15 -5 -3 -9 1 -9 9 0 17 3 19 12 6z m81 -8 c-1 -13 6 -18 26 -17 15 1 25
-3 22 -8 -3 -4 -18 -7 -33 -6 -22 2 -28 7 -26 23 3 23 4 25 9 25 2 0 3 -8 2
-17z m-212 -5 c-3 -4 -9 -8 -15 -8 -5 0 -9 4 -9 8 0 5 7 9 15 9 8 0 12 -4 9
-9z m350 -12 c-4 -11 6 -14 44 -13 43 2 48 0 44 -17 -4 -13 0 -17 13 -15 10 2
20 11 22 19 4 13 3 13 -7 0 -9 -12 -11 -12 -8 -1 2 8 15 21 29 30 22 15 23 15
11 -1 -8 -9 -11 -21 -9 -25 10 -16 -19 -41 -45 -40 -18 2 -24 6 -20 17 5 13 3
13 -11 1 -15 -12 -17 -11 -17 4 0 10 -3 15 -7 12 -3 -4 -12 -2 -19 3 -9 8 -12
6 -10 -7 1 -13 -5 -17 -23 -15 -19 2 -22 0 -12 -12 8 -10 9 -16 1 -21 -6 -3
-8 -11 -5 -16 3 -5 -1 -6 -9 -3 -9 3 -16 9 -17 13 -5 42 -3 53 18 71 13 11 23
25 23 31 0 5 4 8 10 4 5 -3 7 -12 4 -19z m226 20 c0 -3 -4 -8 -10 -11 -5 -3
-10 -1 -10 4 0 6 5 11 10 11 6 0 10 -2 10 -4z m-160 -10 c0 -11 -19 -15 -25
-6 -3 5 1 10 9 10 9 0 16 -2 16 -4z m-467 -31 c-3 -9 -8 -14 -10 -11 -3 3 -2
9 2 15 9 16 15 13 8 -4z m130 -6 c-4 -15 -8 -17 -14 -8 -8 14 -3 29 11 29 4 0
6 -9 3 -21z m207 12 c0 -5 -7 -12 -16 -15 -14 -5 -15 -4 -4 9 14 17 20 19 20
6z m-386 -9 c3 -5 -1 -9 -9 -9 -8 0 -15 4 -15 9 0 4 4 8 9 8 6 0 12 -4 15 -8z
m-592 -73 c-26 -10 -36 1 -15 16 13 10 20 10 25 2 4 -7 0 -15 -10 -18z m793
21 c3 -5 1 -10 -4 -10 -6 0 -11 5 -11 10 0 6 2 10 4 10 3 0 8 -4 11 -10z
m-391 -61 c-3 -5 -11 -9 -17 -9 -7 0 -6 4 3 10 10 6 11 10 3 10 -7 0 -13 5
-13 11 0 8 5 8 15 -1 8 -7 12 -16 9 -21z"/>
<path d="M3508 2653 c7 -3 16 -2 19 1 4 3 -2 6 -13 5 -11 0 -14 -3 -6 -6z"/>
<path d="M3385 2615 c-66 -31 -54 -31 21 0 32 13 52 24 44 24 -8 0 -37 -11
-65 -24z"/>
<path d="M4756 2495 c4 -8 10 -13 14 -10 5 3 12 -4 15 -16 4 -11 9 -18 11 -16
9 8 -19 57 -32 57 -8 0 -11 -6 -8 -15z"/>
<path d="M4390 2035 c-6 -8 -13 -21 -14 -30 -1 -9 -9 -21 -17 -26 -8 -5 -9 -9
-3 -9 6 0 9 -10 7 -24 -4 -17 -10 -22 -24 -19 -10 3 -19 10 -19 16 0 6 -2 8
-5 5 -3 -3 -1 -18 5 -34 9 -23 9 -27 -1 -16 -19 18 -34 15 -18 -5 12 -15 12
-16 -6 -9 -46 18 -49 17 -22 -8 15 -15 25 -31 22 -36 -3 -5 -20 6 -37 25 -25
29 -28 38 -18 50 7 9 8 15 2 15 -12 0 -24 -29 -16 -41 12 -21 -12 -7 -33 19
-13 15 -5 -5 18 -46 24 -42 45 -69 51 -65 6 3 8 1 4 -5 -10 -16 15 -62 34 -62
10 0 28 21 45 53 16 28 38 66 51 82 35 47 63 113 57 134 -3 11 -15 27 -28 35
-20 13 -25 13 -35 1z m44 -31 c3 -8 2 -12 -4 -9 -6 3 -10 10 -10 16 0 14 7 11
14 -7z"/>
<path d="M4315 1991 c-3 -5 -2 -12 3 -15 5 -3 9 1 9 9 0 17 -3 19 -12 6z"/>
<path d="M2887 1605 c3 -33 9 -67 14 -75 13 -23 9 26 -6 85 l-14 50 6 -60z"/>
<path d="M3212 1575 c-6 -22 -13 -51 -15 -65 -2 -14 -7 -33 -11 -42 -4 -9 -5
-22 -1 -28 3 -5 -1 -10 -9 -10 -8 0 -13 -6 -11 -12 6 -15 -53 -58 -78 -58 -8
0 -19 -5 -22 -11 -4 -6 -19 -7 -36 -4 -17 4 -29 2 -29 -3 0 -14 63 -52 86 -52
28 0 115 69 147 118 31 46 32 31 -3 177 l-7 30 -11 -40z"/>
<path d="M2900 1507 c0 -27 24 -108 35 -117 11 -9 11 -2 0 45 -7 31 -18 62
-24 68 -6 6 -11 8 -11 4z"/>
<path d="M3703 2001 c-3 -11 -9 -18 -14 -15 -5 3 -9 0 -9 -5 0 -17 15 -13 34
8 12 13 14 21 6 26 -7 4 -14 -2 -17 -14z"/>
<path d="M3615 1900 c3 -5 8 -10 11 -10 2 0 4 5 4 10 0 6 -5 10 -11 10 -5 0
-7 -4 -4 -10z"/>
<path d="M4345 1451 c-3 -5 -2 -12 3 -15 5 -3 9 1 9 9 0 17 -3 19 -12 6z"/>
<path d="M4090 1433 c0 -12 28 -38 34 -32 2 2 -5 13 -15 23 -11 11 -19 15 -19
9z"/>
<path d="M4070 1421 c0 -6 4 -13 10 -16 6 -3 7 1 4 9 -7 18 -14 21 -14 7z"/>
<path d="M4263 1385 c0 -8 4 -12 9 -9 5 3 6 10 3 15 -9 13 -12 11 -12 -6z"/>
<path d="M4225 1380 c-3 -5 -1 -10 4 -10 6 0 11 5 11 10 0 6 -2 10 -4 10 -3 0
-8 -4 -11 -10z"/>
<path d="M4141 1321 c-8 -13 -8 -22 -1 -26 6 -4 10 -3 9 2 -1 4 -1 15 0 23 1
13 2 13 11 0 5 -8 12 -12 15 -9 3 4 -1 12 -9 18 -12 10 -17 8 -25 -8z"/>
<path d="M4017 1300 c3 -9 11 -17 19 -17 10 0 11 4 3 13 -7 8 -6 14 3 17 7 3
4 5 -8 4 -14 -1 -20 -6 -17 -17z"/>
<path d="M4073 1305 c-13 -10 -13 -14 -3 -20 8 -5 11 -4 7 2 -9 14 18 24 30
12 6 -6 10 -5 10 4 0 17 -22 18 -44 2z"/>
<path d="M3926 1285 c-9 -26 -7 -32 5 -12 6 10 9 21 6 23 -2 3 -7 -2 -11 -11z"/>
<path d="M3966 1287 c3 -8 11 -14 19 -14 20 0 19 4 -5 17 -15 8 -18 8 -14 -3z"/>
<path d="M4080 1260 c-8 -15 -8 -18 3 -14 8 3 14 11 14 19 0 20 -4 19 -17 -5z"/>
<path d="M4122 1264 c-7 -8 -8 -14 -3 -14 10 0 25 19 20 25 -2 1 -10 -3 -17
-11z"/>
<path d="M4035 1249 c2 -10 -6 -26 -17 -36 -12 -10 -19 -13 -15 -8 3 6 -3 16
-14 23 -10 7 -19 9 -18 5 4 -23 -3 -32 -18 -26 -11 4 -14 3 -9 -5 4 -7 2 -12
-4 -12 -6 0 -8 -6 -5 -12 4 -7 -5 0 -20 16 -15 16 -26 23 -25 15 1 -8 2 -21 1
-29 -1 -13 -2 -13 -11 0 -8 13 -10 13 -10 -2 0 -27 19 -31 29 -6 7 15 10 18
10 7 1 -25 29 -31 36 -8 5 14 12 18 25 14 15 -5 17 -2 13 16 l-6 22 21 -21
c28 -28 45 -28 37 -2 -5 17 -2 20 27 20 18 0 40 5 48 10 10 6 4 8 -21 4 -24
-4 -39 -2 -44 6 -5 8 -4 11 2 7 6 -4 13 0 16 7 4 10 0 14 -13 13 -11 -1 -17
-7 -15 -18z"/>
<path d="M3884 1238 l-19 -23 23 19 c21 18 27 26 19 26 -2 0 -12 -10 -23 -22z"/>
<path d="M4056 1198 c3 -4 11 -5 19 -1 21 7 19 12 -4 10 -11 0 -18 -5 -15 -9z"/>
<path d="M4750 1375 c-14 -8 -20 -14 -14 -15 5 0 19 7 30 15 24 18 16 19 -16
0z"/>
<path d="M3545 1130 c-3 -5 1 -10 10 -10 9 0 13 5 10 10 -3 6 -8 10 -10 10 -2
0 -7 -4 -10 -10z"/>
<path d="M3445 1100 c-3 -6 1 -7 9 -4 18 7 21 14 7 14 -6 0 -13 -4 -16 -10z"/>
<path d="M3330 1015 c0 -8 5 -15 10 -15 6 0 10 5 10 11 0 5 5 7 12 3 7 -4 8
-3 4 4 -10 17 -36 15 -36 -3z"/>
<path d="M3300 979 c0 -5 5 -7 10 -4 6 3 10 8 10 11 0 2 -4 4 -10 4 -5 0 -10
-5 -10 -11z"/>
<path d="M3450 999 c0 -5 5 -7 10 -4 6 3 10 8 10 11 0 2 -4 4 -10 4 -5 0 -10
-5 -10 -11z"/>
<path d="M4870 713 c-14 -10 -38 -29 -55 -44 -113 -100 -155 -133 -208 -159
-51 -26 -72 -30 -138 -30 -66 0 -84 -4 -114 -24 l-36 -24 58 -8 c137 -18 277
4 358 58 61 40 123 112 153 176 27 60 20 82 -18 55z"/>
<path d="M4358 613 c7 -3 16 -2 19 1 4 3 -2 6 -13 5 -11 0 -14 -3 -6 -6z"/>
<path d="M4318 483 c7 -3 16 -2 19 1 4 3 -2 6 -13 5 -11 0 -14 -3 -6 -6z"/>
<path d="M4205 450 c3 -5 14 -10 23 -10 15 0 15 2 2 10 -20 13 -33 13 -25 0z"/>
<path d="M4205 410 c-3 -6 1 -7 9 -4 18 7 21 14 7 14 -6 0 -13 -4 -16 -10z"/>
<path d="M4220 390 c0 -5 5 -10 10 -10 6 0 10 5 10 10 0 6 -4 10 -10 10 -5 0
-10 -4 -10 -10z"/>
<path d="M4450 251 c0 -5 5 -13 10 -16 6 -3 10 -2 10 4 0 5 -4 13 -10 16 -5 3
-10 2 -10 -4z"/>
<path d="M4428 203 c7 -3 16 -2 19 1 4 3 -2 6 -13 5 -11 0 -14 -3 -6 -6z"/>
<path d="M1378 3489 c-21 -12 -23 -42 -4 -58 30 -25 71 24 46 54 -14 17 -19
18 -42 4z"/>
<path d="M2527 3419 c7 -9 10 -19 6 -23 -4 -4 1 -4 10 0 10 3 17 7 15 8 -2 1
-12 8 -23 16 -18 14 -19 13 -8 -1z"/>
<path d="M2651 3408 c11 -24 8 -31 -22 -70 -19 -23 -28 -39 -21 -34 7 4 22 -1
37 -12 23 -18 23 -20 8 -43 l-16 -24 26 24 c25 23 38 49 18 37 -5 -3 -19 3
-32 13 -21 16 -22 21 -9 36 13 16 15 16 27 -1 11 -15 12 -11 8 26 -2 24 -11
50 -20 59 -15 15 -15 14 -4 -11z"/>
<path d="M2812 3395 c0 -16 2 -22 5 -12 2 9 2 23 0 30 -3 6 -5 -1 -5 -18z"/>
<path d="M3790 3410 c0 -6 7 -13 15 -16 8 -4 12 -10 9 -15 -3 -5 0 -9 5 -9 12
0 14 11 5 34 -7 18 -34 22 -34 6z"/>
<path d="M3867 3413 c-13 -12 -7 -33 8 -33 8 0 15 5 15 11 0 5 6 7 13 3 8 -5
8 -2 -2 9 -14 18 -24 21 -34 10z"/>
<path d="M3753 3404 c-7 -3 -9 -12 -6 -20 3 -8 0 -14 -6 -14 -6 0 -11 -7 -11
-15 0 -8 -7 -15 -15 -15 -8 0 -15 -8 -14 -17 0 -11 3 -13 6 -5 2 6 13 12 24
12 13 0 19 6 17 18 -2 9 2 16 7 15 6 0 17 6 25 15 13 14 12 15 -4 9 -14 -5
-17 -3 -12 8 3 8 4 15 3 14 -1 0 -7 -3 -14 -5z"/>
<path d="M3845 3359 c5 -14 3 -20 -7 -18 -25 3 -38 -1 -38 -12 0 -5 4 -8 9 -5
5 4 11 1 13 -5 2 -6 14 -8 31 -4 29 8 36 32 15 53 -19 19 -30 14 -23 -9z"/>
<path d="M3890 3369 c0 -5 5 -7 12 -3 7 5 8 3 2 -7 -5 -8 -9 -26 -10 -41 -2
-32 25 -47 42 -23 10 14 14 13 34 -3 21 -17 21 -19 4 -19 -10 0 -22 5 -26 11
-5 8 -8 7 -8 -1 0 -15 35 -35 45 -25 5 4 5 2 2 -4 -4 -7 0 -15 9 -18 22 -8 26
-8 20 3 -10 15 4 39 25 44 21 6 26 27 6 27 -7 0 -18 -5 -25 -12 -6 -6 -15 -8
-19 -4 -4 4 -1 11 7 16 8 6 10 10 5 10 -6 0 -17 -6 -24 -12 -11 -11 -12 -9 -7
9 5 15 1 25 -11 32 -10 6 -13 11 -7 11 6 0 17 -7 24 -15 7 -9 15 -13 18 -10 3
3 11 0 19 -6 7 -6 13 -9 13 -5 0 9 -62 46 -77 46 -7 0 -13 -7 -13 -15 0 -8 5
-15 10 -15 6 0 10 -4 10 -8 0 -4 -8 -8 -18 -8 -14 0 -18 7 -17 28 1 23 -2 28
-22 28 -12 0 -23 -5 -23 -11z"/>
<path d="M2505 3362 c-16 -12 -12 -35 13 -62 12 -14 22 -32 23 -40 0 -10 2
-11 6 -2 2 6 11 12 18 12 8 0 17 5 21 11 4 7 0 9 -14 5 -27 -9 -65 30 -59 62
2 12 4 22 3 22 0 0 -5 -4 -11 -8z"/>
<path d="M3757 3326 c-4 -9 -13 -16 -22 -16 -14 0 -14 -3 0 -30 9 -16 18 -30
21 -30 3 0 2 5 -1 10 -3 6 1 10 9 10 9 0 16 -6 16 -14 0 -17 30 -30 30 -13 0
7 7 4 15 -7 8 -11 21 -16 30 -13 18 8 19 3 3 -26 -17 -30 -17 -66 -1 -60 14 6
14 6 18 41 3 27 25 72 36 72 8 0 6 -15 -8 -50 -6 -14 -9 -28 -6 -32 6 -12 33
-10 33 2 0 6 -4 10 -9 10 -5 0 -7 9 -4 19 3 12 11 17 20 14 8 -3 12 -12 9 -20
-9 -23 4 -35 20 -18 9 8 13 19 9 25 -4 6 1 7 12 4 12 -4 10 0 -7 14 -17 15
-27 17 -32 9 -5 -8 -9 -6 -14 6 -3 10 -19 24 -35 32 -30 16 -53 20 -46 8 3 -5
-1 -14 -9 -21 -12 -11 -16 -9 -23 10 -7 17 -10 19 -10 6 -1 -10 -5 -18 -11
-18 -13 0 -13 16 0 40 8 16 8 18 -5 14 -8 -3 -12 -11 -8 -17 4 -7 0 -8 -11 -4
-10 4 -20 7 -24 7 -3 0 2 6 11 13 11 8 14 17 8 25 -7 11 -9 11 -14 -2z"/>
<path d="M4073 3262 c2 -29 -1 -46 -12 -55 -12 -10 -14 -9 -8 6 9 24 -12 65
-23 47 -9 -14 -3 -37 13 -58 8 -10 13 -9 27 3 9 8 19 13 21 11 3 -3 4 11 4 30
-1 19 -7 40 -13 46 -10 10 -12 3 -9 -30z"/>
<path d="M5297 3249 c-39 -22 -4 -79 35 -58 10 5 18 18 18 29 0 25 -30 41 -53
29z"/>
<path d="M3755 3220 c10 -11 20 -20 23 -20 3 0 -3 9 -13 20 -10 11 -20 20 -23
20 -3 0 3 -9 13 -20z"/>
<path d="M4114 3229 c-5 -9 -2 -10 9 -6 9 3 18 2 21 -4 2 -5 3 -4 2 3 -3 17
-23 21 -32 7z"/>
<path d="M2607 3199 c3 -10 14 -26 25 -36 21 -18 21 -18 9 5 -7 13 -10 29 -8
36 3 6 -3 12 -13 12 -11 0 -15 -6 -13 -17z"/>
<path d="M3795 3210 c4 -6 11 -8 16 -5 14 9 11 15 -7 15 -8 0 -12 -5 -9 -10z"/>
<path d="M309 3181 c-35 -35 -37 -71 -6 -105 23 -25 76 -48 63 -27 -4 6 -14
11 -21 11 -20 0 -47 44 -43 71 2 12 15 31 30 42 25 19 28 19 52 3 20 -12 26
-25 26 -52 0 -21 4 -33 10 -29 19 12 11 65 -15 90 -32 33 -60 31 -96 -4z"/>
<path d="M4148 3199 c-26 -15 -22 -36 9 -42 31 -6 63 17 37 27 -24 9 -31 7
-14 -4 13 -8 12 -10 -4 -10 -13 0 -17 5 -13 20 3 11 4 20 4 20 -1 0 -10 -5
-19 -11z"/>
<path d="M15 3190 c-3 -5 -1 -10 4 -10 6 0 11 5 11 10 0 6 -2 10 -4 10 -3 0
-8 -4 -11 -10z"/>
<path d="M4092 3188 c-9 -9 3 -25 48 -71 33 -32 86 -88 117 -123 39 -43 59
-60 65 -51 5 9 10 9 20 -2 10 -10 10 -12 1 -7 -7 4 -13 3 -13 -2 0 -14 29 -36
37 -28 3 3 1 6 -5 6 -7 0 -8 10 -1 32 10 37 -5 64 -21 38 -8 -13 -10 -12 -10
4 0 12 -5 16 -15 12 -8 -3 -15 -1 -15 3 0 5 7 11 15 15 8 3 15 0 15 -6 0 -6 3
-9 6 -6 3 3 0 15 -7 26 -12 20 -13 20 -28 0 -14 -16 -21 -18 -45 -9 -15 6 -30
20 -33 31 -3 11 -9 17 -14 14 -5 -3 -9 0 -9 5 0 16 18 13 28 -4 10 -19 44 -26
62 -15 12 7 11 12 -5 29 -10 12 -21 19 -24 16 -3 -4 0 -10 7 -14 10 -6 10 -11
-3 -21 -12 -10 -15 -10 -15 3 0 14 -26 32 -42 29 -5 -1 -8 5 -8 13 0 8 5 15
10 15 6 0 10 -4 10 -10 0 -5 7 -10 15 -10 19 0 19 19 0 44 -14 18 -16 19 -34
2 -13 -12 -21 -14 -26 -6 -4 6 -14 9 -22 6 -22 -9 -42 11 -36 34 6 22 -7 26
-25 8z m99 -92 c9 -19 9 -19 -4 -4 -8 10 -16 15 -19 12 -3 -2 -8 2 -11 10 -9
23 22 7 34 -18z m99 -106 c0 -5 -4 -10 -10 -10 -5 0 -10 5 -10 10 0 6 5 10 10
10 6 0 10 -4 10 -10z"/>
<path d="M3790 3181 c0 -5 7 -15 17 -22 15 -13 15 -12 4 9 -12 23 -21 28 -21
13z"/>
<path d="M4023 3153 c-18 -7 -16 -33 2 -33 8 0 15 9 15 20 0 11 -1 20 -2 19
-2 0 -9 -3 -15 -6z"/>
<path d="M727 3119 c7 -7 15 -10 18 -7 3 3 -2 9 -12 12 -14 6 -15 5 -6 -5z"/>
<path d="M3987 3113 c-14 -13 -6 -31 16 -37 21 -6 21 -7 4 -20 -16 -12 -16
-14 -1 -20 8 -3 23 -6 31 -6 12 0 13 3 4 14 -9 11 -9 15 1 20 10 5 10 7 1 12
-7 3 -13 12 -13 19 0 7 -7 16 -16 19 -19 7 -19 7 -27 -1z"/>
<path d="M928 3039 c-23 -13 -23 -52 -1 -70 15 -13 15 -12 6 6 -14 25 1 55 28
55 13 0 25 -11 34 -32 l14 -33 1 31 c0 49 -38 69 -82 43z"/>
<path d="M3689 2978 c-6 -21 -5 -37 2 -32 5 3 7 9 4 14 -3 4 1 11 7 13 10 4
10 6 1 6 -7 1 -13 0 -14 -1z"/>
<path d="M1333 2927 c-42 -19 -22 -67 28 -67 15 0 55 -9 88 -19 34 -10 61 -15
61 -11 0 15 -41 59 -73 79 -41 25 -76 31 -104 18z"/>
<path d="M3908 2903 c7 -3 16 -2 19 1 4 3 -2 6 -13 5 -11 0 -14 -3 -6 -6z"/>
<path d="M3990 2900 c0 -5 5 -10 11 -10 5 0 7 5 4 10 -3 6 -8 10 -11 10 -2 0
-4 -4 -4 -10z"/>
<path d="M35 2850 c-3 -6 1 -7 9 -4 18 7 21 14 7 14 -6 0 -13 -4 -16 -10z"/>
<path d="M668 2773 c7 -3 16 -2 19 1 4 3 -2 6 -13 5 -11 0 -14 -3 -6 -6z"/>
<path d="M5314 2749 c-10 -12 -35 -29 -54 -37 -19 -8 -29 -17 -22 -19 15 -6
88 42 96 63 7 19 2 18 -20 -7z"/>
<path d="M1248 2743 c7 -3 16 -2 19 1 4 3 -2 6 -13 5 -11 0 -14 -3 -6 -6z"/>
<path d="M1298 2733 c7 -3 16 -2 19 1 4 3 -2 6 -13 5 -11 0 -14 -3 -6 -6z"/>
<path d="M1338 2723 c7 -3 16 -2 19 1 4 3 -2 6 -13 5 -11 0 -14 -3 -6 -6z"/>
<path d="M4760 2726 c0 -2 7 -7 16 -10 8 -3 12 -2 9 4 -6 10 -25 14 -25 6z"/>
<path d="M1440 2695 c46 -18 64 -17 25 0 -16 8 -37 14 -45 14 -8 0 1 -7 20
-14z"/>
<path d="M223 2689 c-29 -15 -46 -59 -37 -95 21 -86 148 -226 292 -320 163
-108 299 -159 449 -170 43 -3 88 -7 101 -10 21 -4 21 -6 7 -20 -8 -9 -12 -20
-9 -26 4 -6 2 -8 -4 -4 -13 8 -26 -29 -16 -45 4 -8 3 -9 -4 -5 -13 8 -17 -26
-5 -38 8 -7 11 -32 14 -90 1 -41 32 -120 41 -110 4 3 9 -4 13 -15 3 -12 16
-23 28 -25 33 -7 87 -4 87 5 0 4 7 10 16 13 9 4 13 2 8 -5 -4 -7 0 -9 12 -5
127 39 253 42 320 8 72 -37 136 -104 179 -188 22 -44 48 -86 58 -95 9 -9 17
-26 17 -39 0 -16 4 -20 16 -16 19 7 47 -19 49 -47 1 -11 7 -23 15 -25 7 -3 10
0 7 6 -4 5 0 16 9 23 13 11 15 11 13 -2 -4 -21 11 -60 21 -54 5 3 13 -2 18
-10 8 -15 26 -22 60 -24 6 -1 12 -8 12 -16 0 -8 5 -15 10 -15 6 0 10 6 10 14
0 8 7 17 16 20 22 8 26 8 19 -4 -4 -6 5 -10 19 -10 17 0 26 5 26 16 0 10 -6
14 -15 10 -8 -3 -14 -2 -12 2 3 9 -14 11 -31 4 -16 -6 -26 3 -17 17 3 6 22 11
41 11 22 0 37 6 40 15 6 16 29 20 37 8 2 -5 3 -3 1 2 -1 6 16 12 37 12 22 1
39 -2 39 -6 0 -5 11 -12 25 -15 14 -4 25 -11 25 -16 0 -6 7 -10 15 -10 9 0 15
9 15 23 0 15 3 18 9 9 4 -7 19 -14 32 -16 14 -1 30 -5 36 -9 6 -4 14 -1 16 5
4 10 6 10 6 1 1 -7 6 -13 12 -13 5 0 7 5 4 10 -3 6 1 10 9 10 25 0 19 28 -9
46 -29 19 -33 58 -9 92 16 23 58 30 70 10 4 -7 3 -8 -4 -4 -7 4 -12 2 -12 -3
0 -16 36 -13 50 4 10 12 9 15 -4 15 -10 0 -14 5 -11 10 9 15 48 12 74 -7 14
-9 21 -11 16 -4 -6 10 0 12 26 6 25 -4 30 -3 19 4 -12 9 -12 11 -1 11 8 0 36
-14 63 -31 28 -16 55 -28 61 -26 20 6 -147 100 -178 100 -16 -1 -66 -16 -110
-34 -64 -26 -97 -34 -166 -37 -75 -3 -97 0 -180 28 -158 52 -247 115 -348 243
-29 37 -57 64 -62 61 -5 -3 -8 0 -7 8 2 7 -3 12 -10 10 -8 -1 -11 2 -8 7 8 12
-86 82 -164 121 -71 36 -175 50 -240 33 -37 -10 -70 -7 -70 7 0 14 33 22 116
27 93 6 165 -11 245 -57 28 -17 55 -27 61 -24 6 4 8 3 5 -3 -3 -5 18 -31 48
-57 31 -26 80 -79 111 -117 32 -40 60 -67 66 -63 6 4 8 3 4 -4 -3 -6 12 -25
33 -44 41 -35 173 -108 194 -107 7 0 2 4 -10 9 -13 5 -32 24 -43 42 -21 34
-27 63 -11 54 5 -4 7 2 4 13 -3 10 0 22 6 25 22 14 9 33 -61 86 -40 30 -122
102 -183 160 -123 118 -160 148 -223 177 -23 10 -39 22 -36 26 4 4 0 7 -10 7
-11 0 -15 -4 -10 -12 5 -9 2 -9 -9 1 -14 11 -45 12 -158 6 l-141 -7 4 24 c2
19 -1 23 -22 21 -21 -2 -23 -1 -7 8 24 14 21 28 -5 22 -20 -4 -19 -2 4 12 16
8 28 17 28 18 0 1 -27 3 -59 5 -76 3 -206 41 -317 92 -140 65 -241 134 -373
254 -103 95 -192 133 -248 105z m103 -89 c14 -6 95 -77 178 -158 87 -85 174
-161 206 -179 76 -43 170 -73 232 -73 49 -1 51 -2 34 -15 -28 -21 -81 -18
-159 10 -112 39 -173 82 -325 232 -86 85 -162 151 -188 163 -24 12 -44 24 -44
26 0 8 39 4 66 -6z"/>
<path d="M1788 2593 c7 -3 16 -2 19 1 4 3 -2 6 -13 5 -11 0 -14 -3 -6 -6z"/>
<path d="M1588 2583 c6 -2 18 -2 25 0 6 3 1 5 -13 5 -14 0 -19 -2 -12 -5z"/>
<path d="M1958 2563 c6 -2 18 -2 25 0 6 3 1 5 -13 5 -14 0 -19 -2 -12 -5z"/>
<path d="M5212 2554 c-12 -8 -27 -24 -33 -36 -16 -30 -29 -79 -19 -73 4 3 11
-1 13 -7 4 -10 6 -10 6 0 1 6 6 12 12 12 5 0 8 -4 5 -8 -3 -5 3 -8 12 -8 9 0
31 -2 47 -3 27 -2 28 -3 10 -12 -20 -8 -19 -9 1 -6 11 1 28 -4 38 -12 20 -17
31 -8 20 16 -4 10 -8 32 -9 49 -3 40 -41 104 -64 104 -9 0 -27 -7 -39 -16z
m26 -95 c45 -11 91 -39 64 -39 -7 0 -12 4 -12 9 0 8 -80 26 -107 24 -7 0 -13
3 -13 8 0 12 11 11 68 -2z"/>
<path d="M2028 2553 c7 -3 16 -2 19 1 4 3 -2 6 -13 5 -11 0 -14 -3 -6 -6z"/>
<path d="M2158 2543 c12 -2 32 -2 45 0 12 2 2 4 -23 4 -25 0 -35 -2 -22 -4z"/>
<path d="M2348 2533 c12 -2 32 -2 45 0 12 2 2 4 -23 4 -25 0 -35 -2 -22 -4z"/>
<path d="M1858 2523 c6 -2 18 -2 25 0 6 3 1 5 -13 5 -14 0 -19 -2 -12 -5z"/>
<path d="M1933 2513 c9 -2 25 -2 35 0 9 3 1 5 -18 5 -19 0 -27 -2 -17 -5z"/>
<path d="M1547 2499 c7 -7 15 -10 18 -7 3 3 -2 9 -12 12 -14 6 -15 5 -6 -5z"/>
<path d="M2048 2503 c12 -2 30 -2 40 0 9 3 -1 5 -23 4 -22 0 -30 -2 -17 -4z"/>
<path d="M2153 2493 c20 -2 54 -2 75 0 20 2 3 4 -38 4 -41 0 -58 -2 -37 -4z"/>
<path d="M2307 2483 c18 -2 50 -2 70 0 21 2 7 4 -32 4 -38 0 -55 -2 -38 -4z"/>
<path d="M1908 2473 c6 -2 18 -2 25 0 6 3 1 5 -13 5 -14 0 -19 -2 -12 -5z"/>
<path d="M2443 2473 c15 -2 37 -2 50 0 12 2 0 4 -28 4 -27 0 -38 -2 -22 -4z"/>
<path d="M5642 2468 c-16 -16 -15 -35 3 -42 25 -9 46 5 43 28 -3 24 -28 32
-46 14z"/>
<path d="M1998 2463 c7 -3 16 -2 19 1 4 3 -2 6 -13 5 -11 0 -14 -3 -6 -6z"/>
<path d="M2370 2460 l-35 -7 32 -2 c17 0 35 4 38 9 3 6 5 9 3 9 -2 -1 -19 -5
-38 -9z"/>
<path d="M5067 2455 c-4 -8 -2 -17 3 -20 6 -4 10 3 10 14 0 25 -6 27 -13 6z"/>
<path d="M2078 2453 c12 -2 30 -2 40 0 9 3 -1 5 -23 4 -22 0 -30 -2 -17 -4z"/>
<path d="M1088 2439 c-36 -20 -12 -89 31 -89 10 0 25 8 34 18 42 47 -10 103
-65 71z"/>
<path d="M1768 2443 c7 -3 16 -2 19 1 4 3 -2 6 -13 5 -11 0 -14 -3 -6 -6z"/>
<path d="M2173 2443 c15 -2 37 -2 50 0 12 2 0 4 -28 4 -27 0 -38 -2 -22 -4z"/>
<path d="M4995 2440 c-3 -5 -1 -10 4 -10 6 0 11 5 11 10 0 6 -2 10 -4 10 -3 0
-8 -4 -11 -10z"/>
<path d="M2353 2433 c31 -2 83 -2 115 0 31 2 5 3 -58 3 -63 0 -89 -1 -57 -3z"/>
<path d="M1888 2423 c6 -2 18 -2 25 0 6 3 1 5 -13 5 -14 0 -19 -2 -12 -5z"/>
<path d="M5145 2420 c3 -5 8 -10 11 -10 2 0 4 5 4 10 0 6 -5 10 -11 10 -5 0
-7 -4 -4 -10z"/>
<path d="M1978 2413 c7 -3 16 -2 19 1 4 3 -2 6 -13 5 -11 0 -14 -3 -6 -6z"/>
<path d="M5175 2410 c-3 -6 1 -7 9 -4 18 7 21 14 7 14 -6 0 -13 -4 -16 -10z"/>
<path d="M2053 2403 c9 -2 23 -2 30 0 6 3 -1 5 -18 5 -16 0 -22 -2 -12 -5z"/>
<path d="M4990 2400 c0 -5 5 -10 10 -10 6 0 10 5 10 10 0 6 -4 10 -10 10 -5 0
-10 -4 -10 -10z"/>
<path d="M5215 2387 c-5 -7 -10 -21 -10 -32 0 -11 -11 -25 -23 -31 -27 -14
-18 -22 30 -28 28 -4 34 -1 35 15 1 11 -5 19 -14 19 -12 0 -14 7 -10 35 6 39
6 39 -8 22z"/>
<path d="M5140 2360 c8 -5 20 -10 25 -10 6 0 3 5 -5 10 -8 5 -19 10 -25 10 -5
0 -3 -5 5 -10z"/>
<path d="M5230 2359 c0 -5 5 -7 10 -4 6 3 10 8 10 11 0 2 -4 4 -10 4 -5 0 -10
-5 -10 -11z"/>
<path d="M5694 2320 c-5 -5 -22 -11 -37 -12 -18 -2 -27 -8 -27 -20 0 -9 -4
-20 -10 -23 -5 -3 -10 1 -10 11 0 10 -9 3 -25 -20 -29 -43 -30 -46 -11 -46 8
0 17 8 20 18 4 11 19 25 34 33 15 8 30 18 33 23 8 11 29 -1 29 -17 0 -7 -4 -6
-10 3 -8 13 -10 12 -10 -2 0 -22 14 -23 33 -4 8 9 12 26 10 40 -6 30 -6 29
-19 16z"/>
<path d="M5120 2290 c0 -4 8 -14 17 -21 14 -12 16 -12 8 0 -6 11 -4 13 9 8 9
-4 15 -3 12 2 -8 12 -46 21 -46 11z"/>
<path d="M5213 2276 c6 -15 -36 -60 -46 -49 -4 3 -7 2 -7 -4 0 -23 14 -20 36
6 13 16 35 32 49 35 14 4 25 11 25 17 0 6 -7 6 -20 -1 -14 -7 -20 -7 -20 0 0
5 -5 10 -11 10 -6 0 -9 -6 -6 -14z"/>
<path d="M1243 2233 c9 -2 23 -2 30 0 6 3 -1 5 -18 5 -16 0 -22 -2 -12 -5z"/>
<path d="M5229 2211 c-24 -20 -24 -20 -2 -18 12 0 21 6 20 11 -1 5 5 11 14 13
11 3 20 -6 28 -28 6 -17 9 -35 6 -39 -3 -4 2 -10 10 -14 12 -4 11 3 -3 42 -20
53 -38 62 -73 33z"/>
<path d="M210 2185 c13 -14 26 -25 28 -25 3 0 -5 11 -18 25 -13 14 -26 25 -28
25 -3 0 5 -11 18 -25z"/>
<path d="M5710 2185 c0 -8 7 -15 15 -15 8 0 15 7 15 15 0 8 -7 15 -15 15 -8 0
-15 -7 -15 -15z"/>
<path d="M5256 2181 c-4 -5 -2 -12 3 -15 5 -4 12 -2 15 3 4 5 2 12 -3 15 -5 4
-12 2 -15 -3z"/>
<path d="M5037 2173 c-3 -5 -8 -22 -11 -39 -5 -24 -3 -33 8 -37 9 -4 16 -2 16
2 0 5 -5 11 -11 13 -13 4 6 58 21 58 6 0 8 -5 4 -12 -4 -7 -3 -8 4 -4 7 4 14
-3 18 -19 3 -14 9 -24 12 -21 2 3 -1 19 -8 36 -12 28 -42 41 -53 23z"/>
<path d="M5051 2115 c-1 -16 -2 -50 -4 -75 -1 -32 2 -44 11 -42 6 1 12 -5 12
-14 0 -8 -4 -12 -10 -9 -5 3 -10 -1 -10 -9 0 -9 5 -16 11 -16 6 0 9 -9 6 -19
-2 -10 -1 -25 4 -32 6 -9 8 10 6 50 -2 35 -1 83 3 107 4 28 3 41 -3 37 -6 -4
-8 2 -5 15 4 12 2 20 -2 17 -5 -3 -11 1 -13 7 -3 7 -6 0 -6 -17z m14 -92 c-10
-40 -17 -20 -9 23 5 24 9 32 12 21 2 -10 1 -30 -3 -44z"/>
<path d="M5191 2124 c0 -11 3 -14 6 -6 3 7 2 16 -1 19 -3 4 -6 -2 -5 -13z"/>
<path d="M5827 2103 c-19 -22 -31 -68 -22 -82 9 -15 41 3 56 30 11 22 5 69
-10 69 -4 0 -15 -8 -24 -17z"/>
<path d="M5025 2080 c3 -5 8 -10 11 -10 2 0 4 5 4 10 0 6 -5 10 -11 10 -5 0
-7 -4 -4 -10z"/>
<path d="M5095 2080 c-3 -5 -1 -18 4 -27 9 -16 10 -14 11 10 0 28 -5 34 -15
17z"/>
<path d="M2320 2055 c-12 -14 -11 -21 2 -43 22 -36 36 -38 44 -6 11 45 -21 79
-46 49z"/>
<path d="M202 2038 c-40 -21 -133 -108 -115 -108 4 0 2 -4 -5 -9 -8 -4 -12
-19 -10 -32 3 -21 8 -19 65 36 34 32 60 62 57 67 -3 4 -1 8 4 8 4 0 18 14 30
30 13 17 21 30 20 30 -2 0 -22 -10 -46 -22z m-57 -78 c3 -6 -1 -7 -9 -4 -18 7
-21 14 -7 14 6 0 13 -4 16 -10z"/>
<path d="M5151 2014 c0 -11 3 -14 6 -6 3 7 2 16 -1 19 -3 4 -6 -2 -5 -13z"/>
<path d="M5111 2012 c-1 -8 -6 -10 -13 -6 -10 5 -10 4 -1 -6 15 -16 28 -8 20
12 -4 11 -6 11 -6 0z"/>
<path d="M484 1965 c-70 -35 -158 -107 -198 -163 -45 -61 -61 -119 -61 -212 1
-87 28 -157 90 -228 48 -55 153 -128 129 -90 -5 7 -3 8 5 4 7 -5 10 -11 7 -14
-3 -3 9 -14 26 -25 18 -11 34 -15 36 -9 1 5 12 8 22 5 13 -3 20 0 20 8 1 10 4
8 11 -3 15 -27 28 -22 24 10 -2 15 -4 35 -4 45 -1 9 -8 17 -16 17 -19 0 -19
14 0 30 23 19 18 27 -20 34 -21 4 -35 13 -35 21 0 9 -9 15 -21 15 -11 0 -32 9
-46 20 -14 11 -32 20 -39 20 -43 0 -95 144 -80 223 7 40 46 77 80 77 33 0 44
12 51 53 9 45 63 114 118 148 20 13 37 27 37 31 0 18 -89 7 -136 -17z m3 -587
c-3 -8 -6 -5 -6 6 -1 11 2 17 5 13 3 -3 4 -12 1 -19z m27 -113 c-4 -8 -10 -12
-15 -9 -11 6 -2 24 11 24 5 0 7 -7 4 -15z m41 5 c3 -5 2 -10 -4 -10 -5 0 -13
5 -16 10 -3 6 -2 10 4 10 5 0 13 -4 16 -10z"/>
<path d="M5022 1960 c0 -14 2 -19 5 -12 2 6 2 18 0 25 -3 6 -5 1 -5 -13z"/>
<path d="M5117 1967 c-3 -8 -1 -20 4 -28 6 -10 9 -7 9 14 0 29 -5 35 -13 14z"/>
<path d="M5908 1943 c-22 -5 -23 -17 -2 -34 13 -10 17 -10 25 2 17 26 8 39
-23 32z"/>
<path d="M5593 1928 c-6 -7 -20 -33 -31 -58 -12 -25 -34 -61 -49 -79 -15 -19
-23 -32 -16 -28 7 4 27 28 44 52 18 25 40 45 50 45 20 0 61 48 56 64 -5 16
-42 19 -54 4z"/>
<path d="M5685 1929 c-4 -6 -5 -12 -2 -15 2 -3 7 2 10 11 7 17 1 20 -8 4z"/>
<path d="M5121 1910 c0 -8 4 -24 9 -35 5 -13 9 -14 9 -5 0 8 -4 24 -9 35 -5
13 -9 14 -9 5z"/>
<path d="M5749 1884 c-35 -19 -52 -41 -46 -58 7 -18 67 -31 101 -22 26 6 52
56 42 81 -7 19 -61 18 -97 -1z"/>
<path d="M5480 1833 c0 -10 4 -14 8 -8 4 6 11 13 16 18 5 4 2 7 -7 7 -10 0
-17 -8 -17 -17z"/>
<path d="M5054 1832 c-9 -5 -8 -10 2 -19 9 -9 15 -10 20 -2 8 14 -8 30 -22 21z"/>
<path d="M5135 1830 c-3 -5 -1 -10 4 -10 6 0 11 5 11 10 0 6 -2 10 -4 10 -3 0
-8 -4 -11 -10z"/>
<path d="M5526 1772 c-3 -5 1 -9 9 -9 8 0 12 4 9 9 -3 4 -7 8 -9 8 -2 0 -6 -4
-9 -8z"/>
<path d="M5625 1770 c-3 -6 1 -7 9 -4 18 7 21 14 7 14 -6 0 -13 -4 -16 -10z"/>
<path d="M5675 1770 c-3 -5 1 -10 9 -10 9 0 16 5 16 10 0 6 -4 10 -9 10 -6 0
-13 -4 -16 -10z"/>
<path d="M5773 1693 c-15 -5 -18 -33 -4 -33 8 0 25 30 19 35 -2 1 -9 0 -15 -2z"/>
<path d="M33 1674 c-3 -8 -1 -20 5 -26 16 -16 42 -2 42 22 0 24 -38 28 -47 4z"/>
<path d="M5475 1680 c3 -4 -4 -15 -15 -25 -28 -25 -25 -31 14 -33 26 -2 38 3
50 19 19 28 14 36 -23 41 -17 2 -28 1 -26 -2z"/>
<path d="M5595 1679 c-4 -6 -5 -12 -2 -15 2 -3 7 2 10 11 7 17 1 20 -8 4z"/>
<path d="M5810 1664 c-16 -18 3 -50 42 -70 39 -20 87 -12 118 21 13 14 32 25
42 25 24 0 23 17 -3 25 -42 14 -188 13 -199 -1z"/>
<path d="M5624 1659 c-8 -13 3 -26 26 -32 15 -4 20 0 20 13 0 19 -36 34 -46
19z"/>
<path d="M2100 1630 c0 -5 5 -10 10 -10 6 0 10 5 10 10 0 6 -4 10 -10 10 -5 0
-10 -4 -10 -10z"/>
<path d="M772 1608 c-7 -7 -12 -16 -12 -22 0 -5 3 -7 6 -3 3 3 15 -4 26 -15
11 -11 17 -23 13 -26 -3 -4 -10 0 -14 7 -11 18 -22 0 -19 -33 1 -14 8 -26 15
-26 7 0 13 -4 13 -10 0 -5 7 -10 16 -10 8 0 12 5 9 10 -3 6 3 10 15 10 12 0
19 -4 15 -9 -6 -11 32 -26 55 -23 13 3 13 2 0 -7 -12 -8 -1 -24 63 -87 43 -42
76 -79 73 -81 -8 -8 -34 11 -89 63 -28 27 -46 41 -38 32 9 -12 10 -18 2 -18
-6 0 -12 5 -12 10 -1 6 -2 14 -3 19 -3 25 -48 61 -73 60 l-28 -1 25 -8 c25 -8
25 -8 2 -9 -13 -1 -32 4 -43 9 -13 7 -19 7 -19 0 0 -5 5 -10 11 -10 7 0 17 -8
24 -17 11 -14 16 -15 28 -5 12 10 16 10 21 0 5 -10 7 -10 12 0 6 13 24 7 24
-9 0 -6 -4 -8 -9 -5 -5 4 -12 0 -14 -6 -4 -10 -8 -9 -16 2 -10 13 -12 13 -22
0 -8 -11 -12 -12 -16 -2 -6 17 -23 15 -23 -2 0 -8 -6 -17 -12 -19 -8 -3 -5 -6
5 -6 17 -1 17 -3 -3 -31 -12 -16 -27 -30 -35 -30 -7 0 -15 -7 -19 -15 -7 -20
8 -19 29 1 11 12 19 14 27 6 16 -16 0 -32 -32 -32 -16 0 -31 -4 -34 -9 -3 -4
7 -7 23 -5 15 2 37 -3 47 -11 12 -9 14 -14 6 -15 -7 0 -10 -4 -7 -10 3 -5 0
-11 -7 -11 -7 -1 -20 -3 -28 -4 -8 -1 -21 -3 -28 -4 -7 0 -10 -5 -7 -11 3 -5
1 -10 -6 -10 -7 0 -10 -3 -7 -6 10 -9 120 15 138 31 9 8 25 15 36 14 17 0 16
-1 -3 -9 -36 -14 -27 -17 25 -10 60 10 110 2 144 -21 28 -21 54 -24 62 -10 4
5 -4 7 -16 5 -21 -4 -22 -4 -3 5 11 5 29 10 40 10 17 1 17 -1 5 -9 -13 -9 -13
-10 0 -10 9 0 22 6 29 13 8 6 11 7 8 1 -8 -13 125 -30 145 -18 7 4 10 3 5 -1
-4 -5 16 -15 44 -22 49 -13 108 -48 242 -145 57 -42 58 -42 135 -39 42 1 91 2
107 1 17 -1 88 -1 158 -1 118 1 128 0 123 -16 -3 -10 -8 -31 -12 -46 -4 -16
-18 -34 -35 -43 -39 -20 -99 -73 -99 -88 0 -7 5 -17 11 -23 9 -9 24 -2 59 28
45 38 82 49 95 29 4 -6 10 -8 15 -5 4 2 20 -5 34 -16 15 -12 30 -19 33 -15 4
3 1 6 -6 6 -7 0 -10 4 -6 9 3 5 1 12 -4 16 -12 7 7 55 21 55 18 0 7 21 -17 32
-27 12 -36 44 -10 34 19 -7 19 3 -1 25 -12 14 -13 22 -4 39 10 18 8 24 -7 36
-22 16 -30 17 -38 4 -3 -5 0 -10 7 -10 8 0 6 -6 -5 -17 -15 -15 -19 -16 -27
-3 -5 8 -6 18 -4 22 3 4 -7 3 -23 -3 -34 -13 -111 -13 -147 1 -28 10 -126 97
-126 111 0 20 28 7 61 -27 18 -20 48 -43 66 -50 50 -22 152 -16 137 7 -3 5 1
6 9 3 8 -3 18 0 22 7 6 9 -3 10 -36 5 -36 -5 -53 -2 -88 17 -25 12 -49 31 -55
42 -6 10 -33 40 -60 67 -45 45 -52 48 -100 48 -40 0 -60 -6 -91 -27 -37 -26
-47 -28 -132 -27 l-91 0 1 -25 c3 -35 -32 -40 -79 -12 -20 12 -41 18 -47 15
-7 -4 -9 -4 -5 1 11 11 -12 36 -25 28 -5 -3 -7 -1 -3 5 8 14 -22 44 -36 36 -6
-4 -8 -2 -5 3 9 14 -19 37 -34 27 -8 -4 -9 -3 -5 4 8 13 -62 59 -79 54 -5 -2
-7 0 -3 4 5 4 -22 28 -60 52 -37 25 -73 52 -80 59 -22 21 6 15 37 -8 17 -13
34 -18 42 -14 8 5 10 4 5 -3 -8 -13 61 -59 82 -54 7 2 11 -2 10 -9 -2 -6 3
-14 11 -17 9 -3 11 0 6 8 -5 9 -4 11 4 6 6 -4 9 -11 6 -16 -3 -5 14 -22 37
-38 24 -17 58 -46 77 -66 19 -19 39 -32 45 -29 6 3 8 3 4 -2 -9 -9 45 -45 67
-45 8 0 15 7 15 15 0 8 -5 15 -11 15 -6 0 -9 7 -5 15 3 8 0 15 -6 15 -6 0 -33
16 -59 35 -57 40 -70 44 -43 13 l19 -23 -22 19 c-13 10 -20 22 -18 27 3 4 -1
11 -9 16 -8 4 -30 23 -50 41 -20 18 -36 29 -36 25 0 -5 -5 0 -11 10 -6 9 -15
14 -21 11 -7 -5 -8 -2 -3 5 9 15 -53 83 -68 74 -6 -3 -7 -1 -4 4 4 6 0 16 -8
23 -11 9 -15 9 -15 1 0 -7 -4 -10 -10 -6 -5 3 -7 12 -4 19 6 15 -42 50 -55 41
-13 -7 -41 5 -41 18 0 7 4 7 12 -1 7 -7 17 -12 22 -12 16 0 -4 15 -56 44 -49
27 -125 45 -114 27 4 -5 2 -12 -4 -16 -5 -3 -10 1 -10 9 0 19 -11 20 -29 4
-11 -10 -13 -10 -7 0 9 15 -6 16 -22 0z m168 -38 c0 -5 -7 -10 -16 -10 -8 0
-12 5 -9 10 3 6 10 10 16 10 5 0 9 -4 9 -10z m-83 -42 c-3 -8 -6 -5 -6 6 -1
11 2 17 5 13 3 -3 4 -12 1 -19z m40 -24 c-3 -3 -12 -4 -19 -1 -8 3 -5 6 6 6
11 1 17 -2 13 -5z m143 -19 c0 -8 -4 -15 -9 -15 -5 0 -11 7 -15 15 -3 9 0 15
9 15 8 0 15 -7 15 -15z m35 -25 c3 -5 1 -10 -4 -10 -6 0 -11 5 -11 10 0 6 2
10 4 10 3 0 8 -4 11 -10z m-15 -30 c0 -5 -2 -10 -4 -10 -3 0 -8 5 -11 10 -3 6
-1 10 4 10 6 0 11 -4 11 -10z m90 -45 c0 -12 -19 -12 -23 0 -4 9 -1 12 9 8 7
-3 14 -7 14 -8z m105 -64 c3 -5 0 -13 -6 -17 -7 -4 -9 -3 -5 4 3 5 0 13 -6 15
-9 4 -10 6 -1 6 6 1 14 -3 18 -8z"/>
<path d="M2233 1551 c-7 -10 -9 -21 -7 -24 8 -8 44 25 38 35 -8 13 -18 9 -31
-11z"/>
<path d="M5667 1563 c-15 -15 -7 -42 13 -40 15 1 19 6 14 22 -4 16 -3 17 5 5
11 -16 27 -8 16 9 -7 12 -38 15 -48 4z"/>
<path d="M751 1524 c0 -11 3 -14 6 -6 3 7 2 16 -1 19 -3 4 -6 -2 -5 -13z"/>
<path d="M2375 1523 c-32 -9 -77 -13 -125 -10 -43 3 -64 1 -50 -3 64 -20 213
-7 245 21 12 12 -9 10 -70 -8z"/>
<path d="M5183 1529 c-26 -10 -30 -34 -8 -43 19 -7 42 2 49 19 7 20 -16 34
-41 24z"/>
<path d="M744 1492 c9 -16 -3 -54 -15 -47 -5 3 -6 -1 -3 -9 10 -25 21 -19 28
16 4 19 2 36 -5 42 -9 8 -10 8 -5 -2z"/>
<path d="M66 1482 c-2 -4 4 -8 14 -8 10 0 16 4 14 8 -3 4 -9 8 -14 8 -5 0 -11
-4 -14 -8z"/>
<path d="M1710 1481 c0 -5 7 -11 15 -15 8 -3 15 -1 15 3 0 5 -7 11 -15 15 -8
3 -15 1 -15 -3z"/>
<path d="M775 1470 c-3 -5 -1 -10 4 -10 6 0 11 5 11 10 0 6 -2 10 -4 10 -3 0
-8 -4 -11 -10z"/>
<path d="M555 1461 c-3 -5 0 -13 6 -17 7 -4 9 -3 5 4 -3 6 2 13 11 15 16 4 16
5 1 6 -9 0 -19 -3 -23 -8z"/>
<path d="M619 1459 c-11 -7 -9 -9 9 -9 15 0 22 -6 22 -19 0 -11 3 -26 6 -35 3
-9 1 -16 -4 -16 -6 0 -13 8 -16 18 -8 24 -76 30 -76 7 0 -8 8 -15 18 -15 9 0
30 -7 46 -15 39 -20 70 -20 62 1 -3 9 -9 27 -12 41 -6 23 -5 25 17 18 34 -10
20 2 -22 19 -23 9 -40 11 -50 5z"/>
<path d="M5445 1430 c-3 -6 1 -7 9 -4 18 7 21 14 7 14 -6 0 -13 -4 -16 -10z"/>
<path d="M5468 1418 c-21 -12 -38 -25 -38 -30 0 -13 54 -22 58 -10 2 7 8 12
13 12 6 0 7 -4 4 -10 -3 -5 -2 -10 3 -10 5 0 10 11 10 25 0 15 -5 22 -11 18
-6 -4 -8 0 -4 10 8 21 10 21 -35 -5z"/>
<path d="M747 1403 c-12 -11 -8 -23 8 -23 8 0 15 7 15 15 0 16 -12 20 -23 8z"/>
<path d="M5696 1395 c4 -8 10 -12 15 -9 11 6 2 24 -11 24 -5 0 -7 -7 -4 -15z"/>
<path d="M6013 1403 c9 -2 23 -2 30 0 6 3 -1 5 -18 5 -16 0 -22 -2 -12 -5z"/>
<path d="M674 1333 c4 -12 2 -31 -4 -43 -9 -17 -8 -20 9 -20 17 0 50 38 39 43
-2 1 -14 11 -27 22 l-24 20 7 -22z"/>
<path d="M740 1330 c0 -5 5 -10 11 -10 5 0 7 5 4 10 -3 6 -8 10 -11 10 -2 0
-4 -4 -4 -10z"/>
<path d="M5914 1326 c-11 -30 3 -47 33 -40 37 9 39 12 27 32 -15 23 -52 28
-60 8z"/>
<path d="M2582 1310 c0 -14 2 -19 5 -12 2 6 2 18 0 25 -3 6 -5 1 -5 -13z"/>
<path d="M5600 1319 c0 -5 5 -7 10 -4 6 3 10 8 10 11 0 2 -4 4 -10 4 -5 0 -10
-5 -10 -11z"/>
<path d="M636 1305 c-9 -26 -7 -32 5 -12 6 10 9 21 6 23 -2 3 -7 -2 -11 -11z"/>
<path d="M2625 1309 c-4 -6 -5 -12 -2 -15 2 -3 7 2 10 11 7 17 1 20 -8 4z"/>
<path d="M2140 1290 c-12 -8 -12 -10 -1 -10 11 0 11 -3 1 -15 -11 -13 -10 -14
3 -9 9 3 15 14 14 25 -1 10 -1 19 -2 19 0 0 -7 -5 -15 -10z"/>
<path d="M2350 1290 c0 -5 5 -10 10 -10 6 0 10 5 10 10 0 6 -4 10 -10 10 -5 0
-10 -4 -10 -10z"/>
<path d="M5567 1293 c-3 -5 1 -19 9 -33 l14 -25 -6 30 c-8 35 -10 39 -17 28z"/>
<path d="M2240 1250 c0 -20 -5 -41 -12 -48 -9 -9 -8 -12 5 -12 28 0 39 34 22
67 l-15 28 0 -35z"/>
<path d="M632 1250 c13 -20 28 -27 28 -12 0 10 -22 32 -32 32 -5 0 -3 -9 4
-20z"/>
<path d="M2742 1251 c-23 -6 -22 -6 8 -18 25 -10 29 -9 21 1 -6 7 -8 16 -4 19
3 4 4 7 2 6 -2 -1 -14 -4 -27 -8z"/>
<path d="M2130 1225 c10 -12 10 -19 2 -27 -7 -7 -12 -17 -12 -22 0 -6 7 0 16
12 8 12 22 22 30 22 8 0 12 5 9 10 -4 6 -10 8 -15 5 -5 -3 -11 -1 -15 5 -3 5
-11 10 -17 10 -6 0 -6 -6 2 -15z"/>
<path d="M5600 1233 c1 -14 28 -44 32 -36 3 4 -3 16 -14 26 -10 9 -18 14 -18
10z"/>
<path d="M631 1210 c-19 -11 -4 -30 22 -29 12 0 16 3 9 6 -6 2 -10 9 -7 13 8
13 -9 20 -24 10z"/>
<path d="M738 1213 c7 -3 16 -2 19 1 4 3 -2 6 -13 5 -11 0 -14 -3 -6 -6z"/>
<path d="M558 1203 c6 -2 18 -2 25 0 6 3 1 5 -13 5 -14 0 -19 -2 -12 -5z"/>
<path d="M5530 1190 c-8 -5 -10 -10 -5 -10 6 0 17 5 25 10 8 5 11 10 5 10 -5
0 -17 -5 -25 -10z"/>
<path d="M5560 1180 c-13 -8 -13 -10 2 -10 9 0 20 5 23 10 8 13 -5 13 -25 0z"/>
<path d="M2133 1155 c-22 -24 23 -65 77 -70 l45 -5 -42 11 c-32 8 -41 14 -36
26 5 13 2 15 -16 10 -20 -5 -22 -3 -17 19 7 28 6 29 -11 9z"/>
<path d="M2530 1151 c0 -11 6 -21 13 -24 20 -6 75 9 92 27 15 15 12 16 -44 16
-53 0 -61 -2 -61 -19z"/>
<path d="M2700 1156 c0 -2 7 -7 16 -10 8 -3 12 -2 9 4 -6 10 -25 14 -25 6z"/>
<path d="M2195 1131 c-7 -12 12 -24 25 -16 11 7 4 25 -10 25 -5 0 -11 -4 -15
-9z"/>
<path d="M730 1110 c-9 -6 -10 -10 -3 -10 6 0 15 5 18 10 8 12 4 12 -15 0z"/>
<path d="M5486 1105 c10 -8 24 -14 29 -14 6 0 1 6 -9 14 -11 8 -24 15 -30 15
-5 0 -1 -7 10 -15z"/>
<path d="M5465 1090 c3 -5 8 -10 11 -10 2 0 4 5 4 10 0 6 -5 10 -11 10 -5 0
-7 -4 -4 -10z"/>
<path d="M2589 1073 c-13 -16 -12 -17 4 -4 16 13 21 21 13 21 -2 0 -10 -8 -17
-17z"/>
<path d="M5320 1065 c-24 -13 -24 -14 -3 -12 12 1 25 7 27 14 6 16 7 16 -24
-2z"/>
<path d="M1195 1064 c-87 -10 -164 -28 -158 -37 3 -6 1 -7 -5 -3 -6 4 -21 2
-33 -5 -17 -9 -19 -13 -8 -20 10 -7 6 -8 -11 -4 -15 4 -33 0 -45 -10 -14 -10
-15 -13 -4 -9 10 3 20 1 23 -4 3 -5 -6 -8 -20 -6 -15 1 -43 -9 -69 -27 -48
-32 -70 -57 -42 -46 13 5 17 1 17 -18 0 -29 -3 -30 -23 -11 -13 13 -18 12 -38
-11 -13 -14 -19 -23 -13 -20 7 4 12 -2 12 -17 0 -15 -9 -28 -24 -35 -13 -6
-24 -17 -24 -26 0 -8 -4 -15 -10 -15 -5 0 -10 5 -10 11 0 5 -4 8 -10 4 -5 -3
-2 -13 8 -24 16 -17 18 -16 48 16 36 38 40 39 48 17 3 -8 2 -13 -3 -10 -12 8
-53 -33 -45 -45 4 -6 13 -4 24 6 17 15 19 15 28 -1 6 -11 11 -13 16 -5 4 6 2
11 -3 11 -6 0 -11 5 -11 12 0 6 3 8 7 5 7 -8 31 23 29 38 0 5 -7 10 -14 11 -9
2 -11 -5 -7 -19 5 -19 5 -20 -5 -4 -6 9 -8 22 -5 27 3 6 -1 10 -9 10 -22 0
-28 16 -6 17 10 1 21 -5 24 -12 11 -29 78 5 68 34 -3 8 0 11 7 7 7 -5 9 -1 4
10 -5 13 -3 16 10 11 10 -4 22 1 29 11 7 10 37 33 66 52 39 25 52 39 49 52 -3
11 0 18 10 18 8 0 11 -4 8 -10 -3 -5 -4 -10 -2 -10 5 0 83 27 107 36 8 4 24 8
35 9 11 2 47 8 80 14 32 6 79 12 104 12 l46 2 -55 7 c-56 8 -142 10 -195 4z
m114 -8 c-12 -10 -79 -16 -79 -6 0 5 19 10 42 10 23 0 39 -2 37 -4z m-219 -26
c-8 -5 -19 -10 -25 -10 -5 0 -3 5 5 10 8 5 20 10 25 10 6 0 3 -5 -5 -10z m-92
-97 c-18 -12 -34 -23 -37 -23 -3 0 2 7 12 14 24 18 21 29 -5 21 -15 -4 -19 -3
-10 3 7 5 26 9 42 9 l29 0 -31 -24z m-132 -28 c1 -14 -2 -25 -8 -25 -5 0 -6 5
-3 10 3 6 1 10 -6 10 -8 0 -8 4 1 15 16 19 15 19 16 -10z m-66 -55 c0 -5 -5
-10 -11 -10 -5 0 -7 5 -4 10 3 6 8 10 11 10 2 0 4 -4 4 -10z"/>
<path d="M2408 1064 c-4 -6 -18 -9 -31 -7 -18 4 -32 -5 -60 -36 -42 -47 -45
-68 -17 -104 14 -18 17 -26 8 -29 -20 -7 6 -55 43 -77 35 -21 71 -18 62 6 -5
13 0 15 28 10 19 -3 70 1 114 8 44 7 102 16 128 20 37 5 47 10 45 23 -4 21
-104 80 -148 88 -19 3 -48 10 -63 16 -33 13 -55 57 -35 70 15 9 -35 3 -51 -6
-5 -4 -11 2 -13 11 -2 12 -6 14 -10 7z"/>
<path d="M5442 1030 c-7 -11 -8 -20 -3 -20 9 0 24 30 18 36 -1 2 -8 -6 -15
-16z"/>
<path d="M5622 1003 c-34 -26 -61 -51 -62 -55 0 -10 32 -10 46 0 21 14 87 93
82 98 -3 2 -33 -17 -66 -43z"/>
<path d="M5220 1015 c-33 -19 -21 -19 21 0 19 8 27 14 19 14 -8 0 -26 -6 -40
-14z"/>
<path d="M2776 988 c-22 -31 -20 -38 13 -38 33 0 54 20 45 44 -9 23 -40 20
-58 -6z"/>
<path d="M2863 996 c4 -10 7 -22 7 -27 0 -11 48 -36 80 -40 20 -3 25 0 25 16
0 11 4 23 10 27 12 9 -37 28 -89 36 -34 4 -38 3 -33 -12z"/>
<path d="M5156 978 c-18 -26 -21 -48 -6 -48 6 0 10 6 9 13 -3 26 2 37 16 37 8
0 15 5 15 10 0 17 -18 11 -34 -12z"/>
<path d="M5676 973 c5 -5 12 -12 16 -18 4 -6 8 -2 8 8 0 9 -7 17 -17 17 -9 0
-12 -3 -7 -7z"/>
<path d="M5366 934 c-9 -8 -16 -23 -16 -32 1 -15 3 -14 15 3 8 11 19 26 25 33
16 18 -6 15 -24 -4z"/>
<path d="M5185 929 c-4 -6 -5 -12 -2 -15 2 -3 7 2 10 11 7 17 1 20 -8 4z"/>
<path d="M5191 894 c-13 -29 -11 -30 18 -5 16 14 18 20 7 24 -8 3 -18 -4 -25
-19z"/>
<path d="M5390 910 c0 -5 5 -10 11 -10 5 0 7 5 4 10 -3 6 -8 10 -11 10 -2 0
-4 -4 -4 -10z"/>
<path d="M5374 878 c-4 -7 -4 -10 1 -6 4 4 15 2 24 -5 14 -11 14 -10 2 6 -16
20 -18 21 -27 5z"/>
<path d="M5146 864 c-18 -17 -20 -30 -7 -38 5 -4 -5 -34 -21 -69 -33 -66 -34
-71 -23 -102 6 -19 6 -19 -8 -2 -13 15 -16 16 -27 2 -11 -13 -10 -14 4 -9 9 3
16 1 16 -5 0 -6 -9 -11 -20 -11 -10 0 -25 -10 -31 -22 -7 -13 -28 -43 -48 -67
-20 -25 -30 -41 -23 -37 6 4 12 2 12 -3 0 -6 -9 -11 -19 -11 -11 0 -26 -6 -33
-13 -7 -7 -25 -21 -40 -31 -28 -19 -29 -36 -1 -36 9 0 13 6 9 15 -3 8 -1 15 4
15 17 0 20 -18 5 -30 -8 -7 -15 -19 -15 -26 0 -8 -5 -14 -11 -14 -5 0 -8 -4
-5 -9 4 -5 0 -12 -6 -14 -10 -4 -10 -6 0 -6 7 -1 10 -6 6 -12 -5 -8 -1 -8 14
0 13 7 18 17 15 31 -3 12 6 34 27 60 29 36 30 45 7 41 -5 -1 -6 2 -4 7 3 4 20
8 39 9 18 0 25 -1 16 -4 -24 -6 -23 -19 2 -19 11 0 20 5 20 11 0 5 3 21 7 34
4 17 3 22 -6 17 -6 -4 -8 -13 -5 -19 4 -7 3 -8 -1 -4 -15 13 -14 35 1 41 9 4
18 -3 24 -17 10 -25 12 -20 14 43 1 40 4 45 31 55 35 11 47 25 40 44 -3 7 0
20 6 27 6 7 8 18 4 23 -3 6 -1 20 6 32 l12 22 14 -24 c10 -16 12 -18 7 -4 -3
11 -8 31 -10 45 -4 25 -4 25 7 3 7 -13 16 -23 21 -23 4 0 8 10 8 23 0 18 -2
19 -10 7 -8 -12 -10 -9 -10 12 0 15 -5 30 -10 33 -6 4 -8 11 -4 16 3 5 10 7
15 4 5 -4 9 1 9 9 0 20 -5 20 -24 0z m-45 -177 c-10 -9 -11 -8 -5 6 3 10 9 15
12 12 3 -3 0 -11 -7 -18z m-74 -130 c0 -7 -9 -13 -19 -13 -18 0 -18 1 -2 13
10 7 18 13 19 13 1 0 2 -6 2 -13z"/>
<path d="M5287 873 c-4 -3 3 -14 14 -24 12 -10 19 -25 16 -32 -3 -8 1 -14 8
-14 8 0 11 7 7 16 -9 26 -39 61 -45 54z"/>
<path d="M1309 775 c-73 -37 -139 -105 -139 -142 0 -13 10 -29 25 -39 38 -25
65 -5 116 85 23 42 51 88 62 104 23 34 17 34 -64 -8z"/>
<path d="M2468 793 c7 -3 16 -2 19 1 4 3 -2 6 -13 5 -11 0 -14 -3 -6 -6z"/>
<path d="M2850 791 c0 -4 47 -8 105 -8 97 0 115 -4 235 -43 71 -23 128 -45
126 -49 -2 -3 9 -6 26 -7 20 -1 25 2 16 7 -28 19 -196 79 -258 94 -70 16 -250
21 -250 6z"/>
<path d="M3310 790 c8 -5 20 -10 25 -10 6 0 3 5 -5 10 -8 5 -19 10 -25 10 -5
0 -3 -5 5 -10z"/>
<path d="M5192 780 c0 -14 2 -19 5 -12 2 6 2 18 0 25 -3 6 -5 1 -5 -13z"/>
<path d="M5330 780 c0 -6 7 -10 15 -10 8 0 15 2 15 4 0 2 -7 6 -15 10 -8 3
-15 1 -15 -4z"/>
<path d="M5383 768 c-21 -24 -43 -59 -28 -45 5 4 19 -2 31 -14 15 -14 24 -17
29 -9 4 6 4 14 1 18 -4 3 6 12 21 19 16 7 21 11 11 9 -9 -3 -29 -1 -45 3 l-28
8 28 8 c15 4 27 11 27 16 0 17 -26 9 -47 -13z"/>
<path d="M3350 775 c0 -5 68 -35 79 -35 8 1 -61 39 -71 40 -5 0 -8 -2 -8 -5z"/>
<path d="M2376 755 c4 -9 11 -14 16 -13 15 5 11 23 -6 26 -11 2 -14 -2 -10
-13z"/>
<path d="M5280 759 c0 -5 5 -7 10 -4 6 3 10 8 10 11 0 2 -4 4 -10 4 -5 0 -10
-5 -10 -11z"/>
<path d="M650 720 c0 -5 5 -10 10 -10 6 0 10 5 10 10 0 6 -4 10 -10 10 -5 0
-10 -4 -10 -10z"/>
<path d="M675 709 c-12 -18 3 -22 20 -5 14 14 14 16 1 16 -8 0 -18 -5 -21 -11z"/>
<path d="M595 691 c-3 -6 -3 -11 0 -11 4 0 0 -7 -9 -15 -8 -8 -18 -15 -21 -15
-4 0 -5 7 -1 15 6 17 -2 19 -22 6 -11 -7 -11 -9 2 -14 10 -4 13 -13 9 -23 -6
-15 -4 -15 19 0 14 9 32 14 41 10 12 -4 15 0 13 22 -3 29 -20 42 -31 25z"/>
<path d="M703 684 c-16 -16 -17 -34 -3 -34 6 0 10 -5 10 -11 0 -8 -5 -8 -15 1
-12 10 -18 10 -30 0 -24 -20 -17 -30 20 -30 26 0 35 -4 35 -17 0 -27 19 -2 26
35 4 21 3 32 -5 32 -6 0 -15 9 -19 19 -6 16 -9 17 -19 5z m32 -43 c3 -5 1 -12
-5 -16 -5 -3 -10 1 -10 9 0 18 6 21 15 7z"/>
<path d="M1908 693 c12 -2 30 -2 40 0 9 3 -1 5 -23 4 -22 0 -30 -2 -17 -4z"/>
<path d="M3238 693 c7 -3 16 -2 19 1 4 3 -2 6 -13 5 -11 0 -14 -3 -6 -6z"/>
<path d="M783 683 c-15 -5 -18 -33 -4 -33 5 0 11 9 14 20 3 11 4 20 4 19 -1 0
-8 -3 -14 -6z"/>
<path d="M5423 674 c-3 -8 -12 -13 -21 -9 -12 4 -13 3 -2 -10 13 -16 31 -20
29 -7 -3 18 2 32 12 32 6 0 8 -9 4 -22 -5 -20 -4 -21 5 -5 12 18 6 37 -11 37
-5 0 -12 -7 -16 -16z"/>
<path d="M3275 670 c-3 -5 -2 -10 4 -10 5 0 13 5 16 10 3 6 2 10 -4 10 -5 0
-13 -4 -16 -10z"/>
<path d="M460 650 c-9 -6 -10 -10 -3 -10 6 0 15 5 18 10 8 12 4 12 -15 0z"/>
<path d="M505 650 c3 -5 8 -10 11 -10 2 0 4 5 4 10 0 6 -5 10 -11 10 -5 0 -7
-4 -4 -10z"/>
<path d="M5140 645 c-8 -9 -8 -15 -2 -15 12 0 26 19 19 26 -2 2 -10 -2 -17
-11z"/>
<path d="M430 631 c0 -5 7 -11 15 -15 8 -3 15 -1 15 3 0 5 -7 11 -15 15 -8 3
-15 1 -15 -3z"/>
<path d="M480 624 c0 -8 5 -12 10 -9 6 3 10 10 10 16 0 5 -4 9 -10 9 -5 0 -10
-7 -10 -16z"/>
<path d="M5324 634 c-7 -3 -9 -14 -6 -26 3 -14 1 -19 -6 -14 -7 4 -12 1 -12
-9 0 -8 -6 -18 -14 -21 -8 -3 -12 -13 -9 -24 3 -10 0 -21 -6 -24 -12 -8 -63
23 -56 33 2 4 -3 8 -11 8 -9 0 -11 -4 -5 -10 5 -5 7 -17 4 -26 -4 -12 -3 -13
5 -2 7 10 11 10 17 1 4 -7 -1 -13 -14 -17 -12 -3 -21 -10 -21 -15 0 -6 12 -3
26 7 14 9 28 14 31 12 9 -9 -57 -38 -70 -31 -7 4 -9 4 -5 -1 4 -4 2 -15 -4
-23 -15 -18 -38 -83 -27 -77 4 3 13 -4 19 -15 14 -26 59 -26 94 1 14 11 31 17
38 13 7 -4 10 -4 6 0 -3 4 5 24 19 44 19 28 23 46 20 72 -3 19 -3 29 0 23 8
-23 41 -14 62 16 22 30 27 50 14 52 -34 6 -53 5 -53 -2 0 -5 -9 -9 -20 -9 -20
0 -26 11 -13 24 5 5 14 50 9 45 -1 0 -6 -3 -12 -5z m-17 -165 c3 -29 -11 -49
-61 -83 -45 -30 -66 -22 -66 25 0 24 8 33 53 59 59 34 71 34 74 -1z"/>
<path d="M5220 444 c0 -8 -4 -13 -9 -9 -5 3 -12 1 -15 -4 -4 -5 -2 -12 3 -15
5 -4 13 -1 16 4 5 7 12 5 22 -7 8 -10 12 -12 8 -5 -3 6 -1 13 4 13 6 1 16 2
21 3 6 0 10 4 10 9 0 4 0 9 0 12 0 2 -12 0 -26 -5 -22 -9 -25 -8 -20 5 3 8 1
15 -4 15 -6 0 -10 -7 -10 -16z"/>
<path d="M594 615 c-9 -22 1 -29 15 -11 8 10 9 16 1 21 -5 3 -13 -1 -16 -10z"/>
<path d="M3140 620 c0 -5 5 -10 11 -10 5 0 7 5 4 10 -3 6 -8 10 -11 10 -2 0
-4 -4 -4 -10z"/>
<path d="M355 595 c-56 -33 -132 -102 -156 -142 -24 -38 -33 -79 -30 -136 1
-19 5 -26 13 -21 7 4 8 3 4 -5 -10 -16 3 -53 16 -45 7 4 8 2 4 -5 -9 -14 12
-43 25 -35 5 3 6 -1 4 -9 -7 -17 30 -51 46 -41 8 4 10 3 5 -5 -11 -18 79 -54
120 -48 43 7 92 31 128 62 16 14 33 25 39 25 5 0 3 8 -4 17 -9 11 -10 14 -2 9
7 -4 20 -3 29 2 11 6 13 11 5 16 -6 4 -11 12 -11 18 0 7 5 7 14 -1 11 -9 20
-3 46 29 17 22 27 40 21 40 -5 0 -18 -13 -28 -30 -9 -16 -23 -30 -30 -30 -24
0 -13 25 17 42 26 15 30 22 25 45 -5 25 -5 26 4 6 13 -28 25 -30 18 -3 -3 11
-2 20 1 20 4 0 8 11 8 25 1 15 -4 25 -11 25 -8 0 -20 7 -28 15 -13 12 -14 9
-12 -30 3 -33 -1 -48 -16 -61 -15 -13 -16 -19 -7 -25 7 -4 9 -11 4 -16 -4 -4
-12 0 -17 10 -15 26 -42 22 -33 -5 3 -13 11 -24 15 -26 16 -6 10 -19 -10 -25
-11 -3 -22 1 -25 8 -3 8 -13 11 -25 8 -28 -7 -26 3 7 34 21 20 22 24 7 18 -11
-4 -32 -10 -47 -13 -16 -2 -28 -8 -28 -13 0 -13 -37 -11 -45 2 -4 6 -18 -2
-36 -20 -15 -17 -31 -27 -33 -22 -3 4 4 14 15 21 10 8 19 18 19 22 0 13 -20 9
-36 -7 -20 -19 -30 -19 -38 1 -4 11 -1 14 13 9 13 -4 23 2 35 20 20 31 40 33
31 3 -6 -17 -4 -20 10 -15 9 4 19 7 21 7 2 0 -1 9 -8 20 -7 11 -20 20 -29 20
-9 0 -26 8 -38 19 -18 16 -19 20 -5 25 22 9 26 8 18 -5 -7 -12 15 -31 28 -23
22 14 -6 63 -44 77 -27 10 -21 25 7 19 24 -4 55 -49 55 -79 0 -7 7 -25 16 -38
9 -13 13 -29 9 -35 -3 -5 1 -10 9 -10 20 0 21 24 1 40 -17 14 -20 40 -4 40 5
0 8 4 4 9 -3 5 -1 12 5 16 16 10 12 38 -5 31 -8 -3 -15 -1 -15 3 0 5 7 12 16
15 11 4 15 14 11 32 -4 21 -1 25 13 21 12 -3 20 2 23 14 3 11 12 19 21 19 9 0
16 7 16 15 0 8 -4 15 -9 15 -5 0 -16 3 -24 6 -11 4 -13 -1 -10 -19 4 -20 0
-25 -21 -29 -18 -4 -26 -1 -26 8 0 8 7 14 15 14 23 0 18 26 -10 44 -30 20 -31
20 -80 -9z m55 5 c0 -5 -5 -10 -11 -10 -5 0 -7 5 -4 10 3 6 8 10 11 10 2 0 4
-4 4 -10z m20 -29 c-8 -6 -18 -7 -22 -5 -4 3 -8 1 -8 -4 0 -14 -28 -23 -35
-11 -7 10 29 27 60 28 16 1 17 -1 5 -8z m-88 -49 c-7 -2 -12 -10 -12 -18 0 -8
-4 -14 -10 -14 -13 0 -13 6 3 31 10 17 9 23 -1 26 -6 3 -9 9 -6 15 3 5 13 -1
22 -13 11 -16 12 -24 4 -27z m68 -17 c-7 -9 -15 -13 -17 -11 -7 7 7 26 19 26
6 0 6 -6 -2 -15z m-85 -165 c3 -6 -1 -7 -9 -4 -18 7 -21 14 -7 14 6 0 13 -4
16 -10z m89 -72 c-4 -13 -7 -29 -7 -36 0 -7 -4 -9 -9 -4 -11 11 0 62 14 62 5
0 6 -10 2 -22z m116 -18 c0 -5 -4 -10 -10 -10 -5 0 -10 5 -10 10 0 6 5 10 10
10 6 0 10 -4 10 -10z m-140 -42 c0 -6 -7 -5 -15 2 -8 7 -15 17 -15 22 0 6 7 5
15 -2 8 -7 15 -17 15 -22z m-65 2 c-3 -5 -10 -10 -16 -10 -5 0 -9 5 -9 10 0 6
7 10 16 10 8 0 12 -4 9 -10z"/>
<path d="M520 600 c0 -5 5 -10 10 -10 6 0 10 5 10 10 0 6 -4 10 -10 10 -5 0
-10 -4 -10 -10z"/>
<path d="M5104 601 c-5 -5 -18 -11 -29 -14 l-20 -5 20 -1 c22 -1 52 15 44 23
-3 3 -10 2 -15 -3z"/>
<path d="M633 587 c1 -7 -6 -11 -15 -11 -9 1 -19 -4 -22 -11 -3 -9 5 -13 27
-12 34 2 50 30 23 40 -9 4 -15 1 -13 -6z"/>
<path d="M2800 586 c0 -8 4 -17 9 -20 5 -4 7 3 4 14 -6 23 -13 26 -13 6z"/>
<path d="M556 575 c-3 -8 -1 -15 4 -15 6 0 10 7 10 15 0 8 -2 15 -4 15 -2 0
-6 -7 -10 -15z"/>
<path d="M751 524 c0 -11 3 -14 6 -6 3 7 2 16 -1 19 -3 4 -6 -2 -5 -13z"/>
<path d="M5058 534 c-10 -15 -4 -44 13 -55 10 -6 4 -9 -19 -9 -25 0 -35 -5
-39 -19 -4 -15 -10 -18 -32 -11 -37 10 -63 -16 -36 -36 15 -11 21 -11 27 -1 6
9 10 9 19 -3 9 -13 10 -12 5 3 -3 11 0 17 9 17 11 0 12 -6 6 -22 -5 -13 -15
-22 -22 -20 -8 2 -22 4 -31 5 -10 1 -18 6 -18 12 0 5 -5 3 -10 -5 -8 -12 -10
-12 -10 -1 0 8 -3 11 -7 7 -10 -10 -11 -46 -1 -46 4 0 8 6 8 13 0 8 3 7 9 -3
12 -18 3 -33 -14 -26 -8 3 -19 -3 -26 -12 -8 -9 -10 -14 -5 -10 4 3 21 2 37
-2 17 -5 29 -5 29 1 0 5 -5 9 -12 9 -9 0 -9 3 0 12 10 10 15 10 20 1 8 -13 62
28 62 47 0 6 4 8 10 5 5 -3 7 0 4 9 -3 8 3 19 15 26 26 13 28 0 4 -38 l-17
-27 22 22 c12 12 22 27 22 33 0 6 7 13 15 16 24 10 17 26 -7 19 -21 -6 -22 -5
-5 8 15 12 15 16 3 26 -8 7 -16 25 -18 39 -2 15 -6 22 -10 16z m-8 -83 c0 -6
-4 -13 -10 -16 -5 -3 -10 1 -10 9 0 9 5 16 10 16 6 0 10 -4 10 -9z m-70 -96
c0 -17 -2 -18 -24 -9 -23 9 -20 24 4 24 11 0 20 -7 20 -15z"/>
<path d="M690 496 c0 -9 5 -16 10 -16 6 0 10 4 10 9 0 6 -4 13 -10 16 -5 3
-10 -1 -10 -9z"/>
<path d="M520 470 c0 -18 2 -19 20 -8 11 7 20 16 20 20 0 5 -9 8 -20 8 -13 0
-20 -7 -20 -20z"/>
<path d="M470 464 c0 -8 5 -12 10 -9 6 3 10 10 10 16 0 5 -4 9 -10 9 -5 0 -10
-7 -10 -16z"/>
<path d="M922 468 c-26 -26 1 -65 38 -53 32 10 20 65 -15 65 -6 0 -16 -5 -23
-12z"/>
<path d="M5147 463 c6 -15 4 -16 -8 -6 -13 10 -16 10 -16 -1 0 -16 29 -15 34
1 2 6 -1 14 -6 18 -7 4 -8 -1 -4 -12z"/>
<path d="M670 460 c0 -5 5 -10 10 -10 6 0 10 5 10 10 0 6 -4 10 -10 10 -5 0
-10 -4 -10 -10z"/>
<path d="M730 461 c0 -7 -4 -9 -10 -6 -5 3 -10 -3 -10 -14 0 -12 4 -21 9 -21
10 0 23 41 16 49 -3 2 -5 -1 -5 -8z"/>
<path d="M560 439 c0 -5 5 -7 10 -4 6 3 10 8 10 11 0 2 -4 4 -10 4 -5 0 -10
-5 -10 -11z"/>
<path d="M477 416 c-3 -8 -3 -23 0 -34 6 -24 33 -38 33 -18 0 8 6 16 13 19 6
2 8 8 4 13 -4 5 -12 2 -17 -6 -7 -11 -12 -12 -20 -4 -9 9 -9 14 -1 18 6 4 11
11 11 17 0 14 -17 11 -23 -5z"/>
<path d="M600 420 c0 -5 5 -10 10 -10 6 0 10 5 10 10 0 6 -4 10 -10 10 -5 0
-10 -4 -10 -10z"/>
<path d="M4770 410 c-9 -6 -10 -10 -3 -10 6 0 15 5 18 10 8 12 4 12 -15 0z"/>
<path d="M565 396 c11 -8 24 -12 28 -9 11 7 -12 23 -32 23 -11 0 -9 -4 4 -14z"/>
<path d="M5116 398 c3 -5 10 -6 15 -3 13 9 11 12 -6 12 -8 0 -12 -4 -9 -9z"/>
<path d="M450 371 c0 -12 5 -21 10 -21 6 0 10 6 10 14 0 8 -4 18 -10 21 -5 3
-10 -3 -10 -14z"/>
<path d="M545 380 c-8 -13 39 -34 59 -27 9 4 16 12 16 19 0 9 -3 9 -12 0 -16
-16 -23 -15 -42 3 -9 9 -17 11 -21 5z"/>
<path d="M5090 385 c0 -5 5 -17 10 -25 5 -8 10 -10 10 -5 0 6 -5 17 -10 25 -5
8 -10 11 -10 5z"/>
<path d="M5009 337 c6 -8 7 -18 3 -22 -4 -5 0 -6 9 -2 9 3 23 0 30 -6 8 -7 3
0 -10 16 -24 27 -54 40 -32 14z"/>
<path d="M5143 335 c0 -8 4 -15 9 -15 4 0 8 4 8 9 0 6 -4 12 -8 15 -5 3 -9 -1
-9 -9z"/>
<path d="M495 330 c-3 -5 -1 -10 4 -10 6 0 11 5 11 10 0 6 -2 10 -4 10 -3 0
-8 -4 -11 -10z"/>
<path d="M5096 322 c-3 -5 1 -9 9 -9 8 0 12 4 9 9 -3 4 -7 8 -9 8 -2 0 -6 -4
-9 -8z"/>
<path d="M3268 313 c-10 -2 -18 -9 -18 -14 0 -6 5 -7 10 -4 12 8 13 -5 0 -25
-6 -9 -5 -17 3 -22 18 -11 39 -10 32 2 -4 6 -11 7 -17 4 -8 -5 -9 -1 -4 12 8
19 16 55 13 53 -1 -1 -10 -3 -19 -6z"/>
<path d="M4753 275 c4 -8 2 -17 -4 -20 -5 -4 -7 -11 -4 -16 4 -5 1 -17 -4 -26
-9 -16 -10 -16 -11 5 0 12 -4 22 -10 22 -13 0 -13 -21 0 -40 9 -13 12 -12 25
4 14 18 20 15 16 -7 -1 -5 4 -5 10 -1 8 4 9 -3 5 -27 -6 -27 -5 -31 4 -16 6
10 10 25 8 35 -2 9 3 23 12 30 13 11 12 12 -6 3 -16 -7 -23 -6 -32 9 -9 16 -9
21 5 28 9 5 13 14 9 21 -10 16 -29 13 -23 -4z"/>
<path d="M4976 282 c-3 -5 1 -9 9 -9 8 0 12 4 9 9 -3 4 -7 8 -9 8 -2 0 -6 -4
-9 -8z"/>
<path d="M4938 273 c7 -3 16 -2 19 1 4 3 -2 6 -13 5 -11 0 -14 -3 -6 -6z"/>
<path d="M4816 255 c-3 -8 -1 -15 3 -15 5 0 11 7 15 15 3 8 1 15 -3 15 -5 0
-11 -7 -15 -15z"/>
<path d="M4647 232 c-9 -10 -17 -21 -17 -24 0 -11 44 5 60 21 13 13 13 14 -2
9 -9 -4 -18 -2 -20 3 -2 6 -11 2 -21 -9z"/>
<path d="M4930 246 c0 -2 7 -7 16 -10 8 -3 12 -2 9 4 -6 10 -25 14 -25 6z"/>
<path d="M1420 215 c0 -8 7 -15 15 -15 8 0 15 7 15 15 0 8 -7 15 -15 15 -8 0
-15 -7 -15 -15z"/>
<path d="M4130 220 c-9 -6 -10 -10 -3 -10 6 0 15 5 18 10 8 12 4 12 -15 0z"/>
<path d="M2582 208 c-7 -7 -12 -18 -12 -25 0 -8 7 -6 19 6 16 16 26 18 50 11
43 -12 50 -18 66 -53 9 -18 13 -24 10 -14 -3 10 -5 27 -5 37 0 35 -101 65
-128 38z"/>
<path d="M4815 199 c-4 -6 -5 -12 -2 -15 2 -3 7 2 10 11 7 17 1 20 -8 4z"/>
<path d="M4480 190 c-9 -6 -9 -9 0 -15 6 -4 9 -13 7 -19 -3 -7 1 -13 9 -13 8
0 13 6 10 13 -3 8 0 11 10 7 19 -7 18 -1 -5 19 -10 9 -24 12 -31 8z"/>
<path d="M4380 180 c0 -5 5 -10 11 -10 5 0 7 5 4 10 -3 6 -8 10 -11 10 -2 0
-4 -4 -4 -10z"/>
<path d="M4570 180 c8 -5 18 -6 23 -3 5 3 14 -1 19 -8 8 -12 9 -11 5 1 -2 8
-17 16 -33 17 -20 2 -25 0 -14 -7z"/>
<path d="M4327 168 c2 -5 10 -8 18 -8 8 0 16 3 18 8 3 4 -5 7 -18 7 -13 0 -21
-3 -18 -7z"/>
<path d="M4866 168 c3 -4 11 -5 19 -1 21 7 19 12 -4 10 -11 0 -18 -5 -15 -9z"/>
<path d="M4640 160 c-9 -6 -10 -10 -3 -10 6 0 15 5 18 10 8 12 4 12 -15 0z"/>
<path d="M2560 128 c0 -33 42 -68 79 -67 24 0 23 2 -9 13 -23 8 -41 24 -52 47
-18 33 -18 33 -18 7z"/>
<path d="M4410 139 c0 -5 5 -7 10 -4 6 3 10 8 10 11 0 2 -4 4 -10 4 -5 0 -10
-5 -10 -11z"/>
<path d="M4535 140 c3 -5 8 -10 11 -10 2 0 4 5 4 10 0 6 -5 10 -11 10 -5 0 -7
-4 -4 -10z"/>
<path d="M4385 120 c-3 -5 1 -10 10 -10 9 0 13 5 10 10 -3 6 -8 10 -10 10 -2
0 -7 -4 -10 -10z"/>
<path d="M3890 116 c0 -2 7 -9 15 -16 9 -7 15 -8 15 -2 0 5 -7 12 -15 16 -8 3
-15 4 -15 2z"/>
<path d="M3507 103 c-4 -3 -7 -13 -7 -22 1 -13 3 -13 11 2 11 19 8 33 -4 20z"/>
<path d="M4045 100 c3 -5 8 -10 11 -10 2 0 4 5 4 10 0 6 -5 10 -11 10 -5 0 -7
-4 -4 -10z"/>
<path d="M3847 89 c7 -7 15 -10 18 -7 3 3 -2 9 -12 12 -14 6 -15 5 -6 -5z"/>
<path d="M4155 91 c-3 -5 0 -13 6 -17 7 -4 9 -3 5 4 -3 5 0 13 6 15 9 4 10 6
1 6 -6 1 -14 -3 -18 -8z"/>
<path d="M3930 80 c0 -5 5 -10 11 -10 5 0 7 5 4 10 -3 6 -8 10 -11 10 -2 0 -4
-4 -4 -10z"/>
<path d="M3606 65 c-18 -13 -18 -14 3 -12 11 1 23 7 25 14 7 17 -4 16 -28 -2z"/>
<path d="M3831 64 c0 -11 3 -14 6 -6 3 7 2 16 -1 19 -3 4 -6 -2 -5 -13z"/>
<path d="M3907 74 c-3 -5 1 -15 9 -22 16 -14 18 -5 5 17 -5 7 -11 9 -14 5z"/>
<path d="M3516 52 c-3 -5 1 -9 9 -9 8 0 12 4 9 9 -3 4 -7 8 -9 8 -2 0 -6 -4
-9 -8z"/>
</g>
</svg>
